<svg width="64" height="67" viewBox="0 0 64 67" fill="none" xmlns="http://www.w3.org/2000/svg">
<circle cx="32" cy="35" r="32" fill="#F7F8FA"/>
<path d="M13 30.2712C13.6834 28.1571 15.083 26.1264 16.4625 24.4194C19.4635 20.7063 23.5112 18.1247 27.9767 16.5156C30.6108 15.5665 33.6388 14.7479 36.4721 15.0722C38.2081 15.271 40.1126 16.2703 39.9607 18.2981C39.8824 19.3437 39.3034 20.8251 38.8732 21.6892C37.9817 23.48 36.6182 25.5138 35.4455 27.0975C32.0118 31.7349 27.9167 35.8809 23.9531 40.0575C22.559 41.5265 20.4251 43.7429 19.0246 45.3007C17.7769 46.6885 16.5516 48.1218 15.6621 49.7743C15.3851 50.2889 14.479 51.9122 15.71 51.9219C17.5646 51.9367 19.5048 50.3808 20.8951 49.383C25.8778 45.8071 30.4607 41.6805 35.3411 37.9664C38.6469 35.4506 42.0194 32.92 45.633 30.8538C46.4076 30.4109 47.6816 29.7587 48.5735 29.4539C49.1433 29.2592 50.0405 29.0087 50.5527 29.5017C51.2867 30.2081 50.9416 31.7449 50.7441 32.5667C49.7118 36.8632 47.2506 40.9591 44.85 44.6094C42.9666 47.4733 40.7807 49.9981 38.3643 52.4132C37.5407 53.2364 36.5662 54.0286 35.9414 55" stroke="url(#paint0_linear_245_953)" stroke-width="7" stroke-linecap="round"/>
<defs>
<linearGradient id="paint0_linear_245_953" x1="32" y1="15" x2="32" y2="55" gradientUnits="userSpaceOnUse">
<stop stop-color="#4A25DD"/>
<stop offset="1" stop-color="#8D7FF5"/>
</linearGradient>
</defs>
</svg>
