<svg width="350" height="65" viewBox="0 0 350 65" fill="none" xmlns="http://www.w3.org/2000/svg">
<path d="M342.001 55.751C344.688 41.3005 348.769 21.3734 344.113 7.29356C264.566 6.291 185.247 5.61053 105.639 6.55322C75.4307 6.91098 42.8736 9.94982 12.8299 8.08658C13.9524 21.0023 13.9868 33.9011 14.9193 46.7971C15.3012 52.0785 18.7793 57.7213 17.7369 63C106.812 62.6361 195.958 58.2281 285.094 59.7988C302.179 60.1 319.446 58.6982 336.526 59.8056C291.483 57.7398 245.429 59.5357 200.287 59.8447C170.106 60.0514 139.919 57.5815 109.632 57.7022C80.9939 57.8164 52.386 60.9065 23.8302 60.7031C16.9371 42.1259 7.95343 23.2178 3.53149 4.40111C21.7321 4.19444 39.9099 2.82469 58.0797 2.74391C154.801 2.31378 251.398 3.04079 348 5.1601C347.834 21.8148 340.638 37.89 338.77 54.3749C336.191 37.2396 342.648 20.0797 340.836 2.99774C328.939 1.50682 315.059 2.49932 302.945 2.38779C271.022 2.09359 239.43 1.74566 207.508 2.27298C167.359 2.93602 127.404 3.93284 87.261 4.90916C59.7464 5.57814 29.066 4.34555 2 7.87745C4.80647 26.0217 8.13786 44.172 11.3379 62.2836" stroke="url(#paint0_linear_245_1363)" stroke-width="3" stroke-miterlimit="1.5" stroke-linecap="round" stroke-linejoin="round"/>
<defs>
<linearGradient id="paint0_linear_245_1363" x1="175" y1="2" x2="175" y2="63" gradientUnits="userSpaceOnUse">
<stop stop-color="white" stop-opacity="0.46"/>
<stop offset="0.708333" stop-color="white" stop-opacity="0.35"/>
<stop offset="1" stop-color="white" stop-opacity="0.22"/>
</linearGradient>
</defs>
</svg>
