<svg width="345" height="118" viewBox="0 0 345 118" fill="none" xmlns="http://www.w3.org/2000/svg">
<path d="M337.088 102.453C339.736 75.4468 343.758 38.2061 339.169 11.8929C260.772 10.0193 182.599 8.74755 104.142 10.5093C74.3696 11.1779 42.2829 16.857 12.6734 13.3749C13.7797 37.5126 13.8136 61.6184 14.7326 85.7192C15.109 95.5893 18.5368 106.135 17.5095 116C105.297 115.32 193.155 107.082 281.003 110.017C297.841 110.58 314.859 107.961 331.692 110.03C287.3 106.169 241.911 109.526 197.421 110.103C167.677 110.489 137.926 105.874 108.077 106.099C79.8524 106.313 51.6578 112.088 23.5147 111.707C16.7212 76.9894 7.8674 41.6529 3.50936 6.48731C21.447 6.10109 39.362 3.54123 57.2693 3.39027C152.593 2.58641 247.794 3.94509 343 7.90577C342.837 39.031 335.744 69.0731 333.904 99.881C331.362 67.8577 337.726 35.7884 335.939 3.86463C324.214 1.07832 310.535 2.93316 298.596 2.72473C267.135 2.1749 235.999 1.52469 204.538 2.51016C164.969 3.74928 125.591 5.6122 86.0289 7.43678C58.912 8.68702 28.6749 6.38348 2 12.9841C4.76591 46.893 8.04916 80.8132 11.203 114.661" stroke="url(#paint0_linear_245_750)" stroke-width="3" stroke-miterlimit="1.5" stroke-linecap="round" stroke-linejoin="round"/>
<defs>
<linearGradient id="paint0_linear_245_750" x1="172.5" y1="2" x2="172.5" y2="116" gradientUnits="userSpaceOnUse">
<stop stop-color="#4A25DD"/>
<stop offset="1" stop-color="#8D7FF5"/>
</linearGradient>
</defs>
</svg>
