<svg width="769" height="110" viewBox="0 0 769 110" fill="none" xmlns="http://www.w3.org/2000/svg">
<path d="M66.9499 73.3936V45.4594C66.9143 40.2881 64.8431 35.3405 61.1879 31.6954C57.5326 28.0502 52.5896 26.003 47.4365 26H19.5252C14.3711 26.003 9.42686 28.0498 5.76972 31.6946C2.11258 35.3395 0.0388128 40.287 0.000188209 45.4594V73.3936C-0.0210968 78.2458 1.76368 82.9312 5.00485 86.5318C8.24603 90.1324 12.71 92.3887 17.5224 92.8588L38.0664 76.197H15.9001V68.1394L37.797 50.1787H16.761V42.5384H50.8742V50.549L28.9715 68.5155H50.8742V76.5438L30.7225 92.9999H47.3663C49.9372 93.0092 52.4845 92.5085 54.862 91.5267C57.2395 90.5449 59.4003 89.1013 61.2201 87.2788C63.0399 85.4564 64.4829 83.291 65.4662 80.9071C66.4495 78.5232 66.9537 75.9678 66.9499 73.3877V73.3936ZM83.6111 38.3421H88.7296C89.5079 38.263 90.2907 38.4413 90.9588 38.8497C91.6269 39.2581 92.1438 39.8744 92.4308 40.6048C92.6184 41.0912 92.7002 41.6122 92.6709 42.1329C92.706 43.0595 92.3759 43.9627 91.7523 44.6469C91.1286 45.3311 90.2615 45.7412 89.3386 45.7885C89.1553 45.8002 88.9715 45.8002 88.7881 45.7885H85.2041V50.6665H83.5819L83.6111 38.3421ZM88.4895 44.2193C90.1175 44.2193 91.119 43.4552 91.119 41.9565C91.119 40.4579 90.1175 39.6997 88.4895 39.6997H85.2041V44.2193L88.4895 44.2486V44.2193ZM98.0002 41.5863C98.5678 41.6012 99.1267 41.7301 99.6439 41.9653C100.161 42.2005 100.626 42.5373 101.012 42.9558C101.397 43.3744 101.695 43.8661 101.888 44.4021C102.081 44.9381 102.165 45.5074 102.135 46.0765C102.175 46.6478 102.098 47.2213 101.909 47.7617C101.719 48.302 101.422 48.7978 101.035 49.2184C100.647 49.6391 100.178 49.9757 99.6563 50.2075C99.1345 50.4394 98.5709 50.5616 98.0002 50.5666C97.4323 50.5525 96.873 50.4242 96.3554 50.1892C95.8378 49.9543 95.3725 49.6175 94.9869 49.1988C94.6014 48.7801 94.3035 48.288 94.1109 47.7517C93.9183 47.2154 93.8349 46.6457 93.8656 46.0765C93.8265 45.5053 93.904 44.9322 94.0936 44.3922C94.2831 43.8522 94.5806 43.3568 94.9677 42.9363C95.3549 42.5159 95.8236 42.1792 96.345 41.9471C96.8665 41.7149 97.4297 41.5921 98.0002 41.5863ZM98.0002 49.4735C99.4935 49.4735 100.63 48.2157 100.63 46.2234C100.63 44.231 99.4935 42.9615 98.0002 42.9615H97.8655C96.3721 42.9615 95.236 44.2193 95.236 46.2234C95.236 48.2275 96.3721 49.4735 97.8655 49.4735H98.0002ZM107.88 41.5863C108.527 41.5187 109.179 41.6514 109.748 41.9666C110.318 42.2818 110.777 42.7643 111.066 43.3494C111.254 43.7374 111.363 44.1589 111.388 44.5895H109.894C109.854 44.1052 109.629 43.6551 109.268 43.3318C109.11 43.1644 108.918 43.0335 108.704 42.9482C108.491 42.863 108.261 42.8254 108.032 42.8381H107.897C107.518 42.8699 107.149 42.9766 106.81 43.152C106.472 43.3273 106.172 43.568 105.926 43.8601C105.681 44.1522 105.496 44.49 105.381 44.8542C105.266 45.2184 105.223 45.6018 105.256 45.9824C105.256 46.0177 105.256 46.0588 105.256 46.0941C105.256 47.8572 106.14 49.4735 107.886 49.3559H108.02C108.252 49.3733 108.484 49.3362 108.699 49.2474C108.913 49.1586 109.104 49.0207 109.256 48.8446C109.444 48.6963 109.598 48.5085 109.706 48.2942C109.815 48.08 109.875 47.8446 109.883 47.6045H111.376C111.294 48.4648 110.881 49.2591 110.225 49.8187C109.569 50.3784 108.721 50.6593 107.862 50.6019C107.261 50.6237 106.661 50.5237 106.099 50.3077C105.536 50.0917 105.023 49.7643 104.59 49.3449C104.157 48.9255 103.812 48.4228 103.577 47.8668C103.342 47.3108 103.22 46.7129 103.22 46.1088C103.22 45.5047 103.342 44.9068 103.577 44.3507C103.812 43.7947 104.157 43.292 104.59 42.8726C105.023 42.4533 105.536 42.1258 106.099 41.9099C106.661 41.6939 107.261 41.5938 107.862 41.6157L107.88 41.5863ZM117.15 41.5863C117.796 41.5186 118.446 41.6515 119.014 41.9668C119.581 42.2821 120.039 42.7647 120.325 43.3494C120.513 43.7374 120.622 44.1589 120.647 44.5895H119.153C119.095 44.1104 118.873 43.6662 118.527 43.3318C118.366 43.1633 118.17 43.0319 117.954 42.9467C117.738 42.8614 117.505 42.8244 117.273 42.8381H117.127C116.739 42.8707 116.362 42.9817 116.017 43.1645C115.673 43.3473 115.369 43.598 115.124 43.9016C114.879 44.2052 114.698 44.5554 114.591 44.9312C114.484 45.307 114.455 45.7005 114.503 46.0882C114.503 47.8514 115.364 49.4676 117.127 49.35H117.25C117.484 49.3703 117.72 49.3345 117.938 49.2456C118.156 49.1568 118.349 49.0173 118.503 48.8387C118.686 48.6854 118.836 48.4965 118.943 48.2833C119.051 48.0701 119.115 47.8372 119.13 47.5986H120.641C120.557 48.4583 120.144 49.2517 119.488 49.8111C118.833 50.3705 117.986 50.6519 117.127 50.596C116.525 50.6178 115.926 50.5178 115.363 50.3018C114.801 50.0859 114.288 49.7584 113.855 49.339C113.422 48.9197 113.077 48.417 112.842 47.8609C112.606 47.3049 112.485 46.707 112.485 46.1029C112.485 45.4988 112.606 44.9009 112.842 44.3449C113.077 43.7888 113.422 43.2861 113.855 42.8668C114.288 42.4474 114.801 42.1199 115.363 41.904C115.926 41.688 116.525 41.588 117.127 41.6098L117.15 41.5863ZM130.538 41.8684V50.6254H129.05V43.4552L124.793 50.596H122.796V41.8684H124.289V48.9798L128.658 41.8684H130.538ZM141.05 41.8684V50.6254H139.557V43.4552L135.282 50.596H133.29V41.8684H134.778V49.0973L139.153 41.8684H141.05ZM135.779 38.3421C135.897 39.2295 136.271 39.7232 137.033 39.7232C137.354 39.7328 137.667 39.6148 137.903 39.3948C138.138 39.1748 138.278 38.8705 138.292 38.5478C138.298 38.4852 138.298 38.4223 138.292 38.3597H139.545C139.545 39.9936 138.532 40.6224 136.904 40.6224C135.276 40.6224 134.286 39.8349 134.286 38.3421H135.779ZM147.287 41.6098C147.716 41.5637 148.149 41.6055 148.561 41.7326C148.973 41.8597 149.355 42.0696 149.683 42.3493C150.012 42.6291 150.28 42.973 150.473 43.3601C150.665 43.7472 150.776 44.1695 150.801 44.6013H149.337C149.3 44.1247 149.092 43.6779 148.751 43.3436C148.589 43.1773 148.393 43.0473 148.177 42.9622C147.961 42.8771 147.73 42.8388 147.498 42.8499H147.363C146.981 42.8766 146.609 42.9791 146.266 43.1515C145.924 43.3238 145.62 43.5626 145.37 43.854C145.121 44.1454 144.931 44.4835 144.813 44.8489C144.695 45.2142 144.65 45.5995 144.681 45.9824C144.678 46.0196 144.678 46.0569 144.681 46.0941C144.681 47.8572 145.559 49.4735 147.311 49.3559H147.445C147.68 49.3762 147.915 49.3404 148.133 49.2515C148.351 49.1626 148.545 49.0232 148.698 48.8446C148.874 48.6877 149.016 48.4971 149.116 48.2841C149.217 48.0711 149.274 47.84 149.284 47.6045H150.777C150.694 48.4642 150.281 49.2576 149.625 49.817C148.969 50.3763 148.123 50.6578 147.264 50.6019C146.399 50.6103 145.554 50.3443 144.85 49.8418C144.145 49.3394 143.617 48.6263 143.34 47.8043C143.156 47.2584 143.09 46.6794 143.147 46.1058C143.103 45.5361 143.177 44.9635 143.363 44.4234C143.548 43.8833 143.842 43.387 144.226 42.9652C144.61 42.5434 145.076 42.205 145.596 41.9709C146.115 41.7368 146.677 41.6119 147.246 41.6039L147.287 41.6098ZM156.072 46.3703L154.444 47.8631V50.6195H152.95V41.8684H154.444V46.1176L158.836 41.8684H160.593L157.079 45.2536L160.839 50.6254H158.959L156.077 46.3762L156.072 46.3703ZM165.442 41.6098C166.298 41.6324 167.127 41.9131 167.821 42.4152C168.516 42.9173 169.044 43.6176 169.336 44.425C169.526 44.9619 169.61 45.5309 169.582 46.1C169.655 47.2014 169.291 48.2871 168.571 49.1213C167.851 49.9554 166.831 50.4706 165.735 50.5549H165.465C164.898 50.54 164.339 50.4111 163.821 50.1759C163.304 49.9406 162.839 49.6038 162.454 49.1853C162.068 48.7668 161.771 48.275 161.578 47.7391C161.385 47.2031 161.301 46.6338 161.331 46.0647C161.297 44.9215 161.711 43.8106 162.484 42.9702C163.257 42.1297 164.327 41.6266 165.465 41.5687L165.442 41.6098ZM165.565 49.497C167.058 49.497 168.206 48.2393 168.206 46.2469C168.206 44.2545 167.07 42.9851 165.565 42.9851H165.442C163.978 42.9615 162.806 44.2193 162.806 46.2234C162.806 48.2275 163.925 49.4735 165.43 49.4735L165.565 49.497ZM175.339 41.5863C175.805 41.5722 176.269 41.6504 176.705 41.8165C177.141 41.9826 177.54 42.2332 177.88 42.5542C178.219 42.8751 178.492 43.26 178.683 43.6869C178.874 44.1138 178.98 44.5743 178.993 45.0421C179.002 45.181 179.002 45.3204 178.993 45.4594V46.3468H172.844C172.77 47.0919 172.989 47.8366 173.456 48.4211C173.922 49.0056 174.598 49.3834 175.339 49.4735H175.474C175.927 49.502 176.375 49.3665 176.737 49.0915C177.1 48.8165 177.351 48.4203 177.447 47.9748H178.941C178.773 48.8011 178.31 49.5375 177.639 50.0452C176.968 50.5529 176.136 50.7969 175.298 50.7312C174.187 50.5925 173.165 50.0512 172.424 49.2091C171.683 48.367 171.274 47.2822 171.274 46.1587C171.274 45.0352 171.683 43.9504 172.424 43.1084C173.165 42.2663 174.187 41.725 175.298 41.5863H175.339ZM177.447 45.2243C177.474 44.9309 177.438 44.6352 177.342 44.3568C177.246 44.0784 177.092 43.8237 176.891 43.6096C176.689 43.3955 176.444 43.227 176.173 43.1153C175.901 43.0035 175.609 42.9511 175.316 42.9615H175.193C174.586 42.9692 174.004 43.2066 173.565 43.6262C173.125 44.0457 172.859 44.6165 172.821 45.2243H177.447ZM86.9844 56.7318C87.5516 56.7498 88.1095 56.881 88.6256 57.1177C89.1417 57.3544 89.6057 57.6918 89.9906 58.1103C90.3754 58.5287 90.6734 59.0199 90.8671 59.5552C91.0608 60.0904 91.1465 60.659 91.119 61.2278C91.1564 61.7986 91.0776 62.371 90.8875 62.9103C90.6973 63.4495 90.3997 63.9442 90.0129 64.3643C89.6261 64.7844 89.1581 65.1211 88.6374 65.3538C88.1167 65.5865 87.5543 65.7105 86.9844 65.718C86.4167 65.7031 85.8578 65.5742 85.3406 65.339C84.8234 65.1038 84.3584 64.767 83.973 64.3484C83.5876 63.9299 83.2897 63.4382 83.0968 62.9022C82.9039 62.3662 82.8199 61.7969 82.8498 61.2278C82.7998 60.654 82.8704 60.0761 83.057 59.5314C83.2436 58.9867 83.5422 58.4875 83.9332 58.0659C84.3226 57.6444 84.7947 57.3082 85.3198 57.0786C85.8449 56.849 86.4116 56.7309 86.9844 56.7318ZM87.1015 64.5014C88.5949 64.5014 89.731 63.2613 89.731 61.2572C89.731 59.2531 88.6125 57.9895 87.1015 57.9895H86.9844C85.5027 57.9895 84.3315 59.2472 84.3315 61.2631C84.3315 63.279 85.45 64.5073 86.961 64.5073L87.1015 64.5014ZM93.239 57.3606C93.3163 56.6379 93.5785 55.9475 94.0003 55.3565C94.382 54.9561 94.8487 54.6472 95.3659 54.4528C95.883 54.2585 96.4371 54.1837 96.987 54.234H98.9723C99.5989 54.234 99.8508 54.1164 99.8508 53.6051V53.3642H101.227V53.8578C101.227 55.1156 100.718 55.621 99.2241 55.621H96.987C94.99 55.621 94.3575 56.626 94.2287 59.0063C94.5966 58.5168 95.0689 58.1161 95.611 57.8335C96.1531 57.5508 96.7513 57.3932 97.3618 57.3724C97.8902 57.3724 98.4131 57.4805 98.8985 57.6901C99.3839 57.8996 99.8216 58.2063 100.185 58.5913C100.548 58.9763 100.83 59.4316 101.012 59.9293C101.194 60.4271 101.273 60.9569 101.245 61.4864C101.283 62.0583 101.206 62.6319 101.019 63.1735C100.832 63.7151 100.539 64.2135 100.157 64.6393C99.7744 65.0651 99.3109 65.4096 98.7937 65.6524C98.2764 65.8953 97.7158 66.0315 97.1451 66.053C94.3985 66.053 93.0106 64.0489 93.0106 60.7635C92.9909 59.6153 93.0654 58.4673 93.2331 57.3313L93.239 57.3606ZM97.2506 64.6366C98.7439 64.6366 99.7454 63.2613 99.7454 61.3748C99.7454 59.4882 98.7439 58.3833 97.2506 58.3833H97.1451C96.7828 58.3944 96.4264 58.4784 96.0969 58.6302C95.7675 58.782 95.4717 58.9985 95.2271 59.267C94.9825 59.5355 94.7941 59.8505 94.6729 60.1933C94.5517 60.5362 94.5002 60.8999 94.5215 61.2631C94.4694 61.6658 94.4996 62.075 94.6103 62.4657C94.7209 62.8563 94.9096 63.2203 95.165 63.5354C95.4203 63.8505 95.7369 64.1101 96.0955 64.2984C96.454 64.4867 96.847 64.5998 97.2506 64.6307V64.6366ZM116.899 64.3839V68.0219H115.522V65.671H103.37V56.867H104.864V64.3545H108.629V56.867H110.099V64.3545H113.859V56.867H115.37V64.3545H116.893L116.899 64.3839ZM122.035 56.7435C122.536 56.7314 123.035 56.826 123.497 57.0211C123.96 57.2162 124.376 57.5073 124.718 57.8754C125.061 58.2435 125.322 58.6801 125.484 59.1566C125.646 59.6331 125.706 60.1387 125.66 60.6401V61.5805H119.54C119.465 62.3293 119.686 63.0777 120.154 63.6653C120.623 64.253 121.302 64.6332 122.046 64.7248H122.169C122.626 64.7533 123.077 64.6165 123.441 64.3393C123.806 64.0621 124.059 63.6629 124.155 63.2143H125.648C125.483 64.036 125.025 64.769 124.36 65.2755C123.694 65.782 122.867 66.0271 122.035 65.9648C121.447 65.9718 120.866 65.849 120.331 65.6049C119.797 65.3609 119.322 65.0018 118.941 64.553C118.561 64.1042 118.283 63.5767 118.128 63.0081C117.974 62.4396 117.946 61.8438 118.046 61.2631C118.046 58.254 120.032 56.6201 122.035 56.7377V56.7435ZM124.289 60.2698C124.314 59.9764 124.277 59.6809 124.18 59.403C124.083 59.125 123.928 58.8708 123.727 58.657C123.525 58.4433 123.28 58.2749 123.008 58.1629C122.737 58.0508 122.445 57.9978 122.152 58.0071H122.035C121.426 58.0145 120.842 58.2513 120.4 58.6705C119.957 59.0896 119.688 59.6606 119.645 60.2698H124.289ZM131.481 56.7435C131.9 56.6997 132.323 56.7393 132.727 56.8601C133.131 56.981 133.506 57.1806 133.833 57.4477C134.159 57.7147 134.43 58.0439 134.629 58.4163C134.829 58.7886 134.953 59.1968 134.995 59.6175C134.998 59.6586 134.998 59.6998 134.995 59.7409H133.525C133.491 59.3005 133.307 58.8853 133.003 58.5655C132.844 58.3941 132.649 58.2596 132.433 58.1713C132.217 58.083 131.984 58.0431 131.75 58.0542H131.51C130.724 58.1344 130.002 58.5239 129.501 59.1374C129.001 59.751 128.763 60.5386 128.84 61.3277C128.84 63.0909 129.724 64.713 131.469 64.5778H131.586C131.82 64.6012 132.056 64.5686 132.275 64.4828C132.494 64.397 132.689 64.2604 132.845 64.0841C133.03 63.9289 133.181 63.7371 133.289 63.5207C133.397 63.3043 133.459 63.068 133.472 62.8264H134.965C134.878 63.6843 134.463 64.4751 133.809 65.0336C133.154 65.5922 132.309 65.8753 131.452 65.8238C130.876 65.8321 130.306 65.7187 129.777 65.491C129.248 65.2634 128.773 64.9265 128.382 64.5024C127.992 64.0783 127.694 63.5765 127.51 63.0295C127.325 62.4825 127.258 61.9027 127.311 61.3277C127.387 58.5772 128.898 56.626 131.463 56.7318L131.481 56.7435ZM143.305 58.1364H140.441V65.6122H138.948V58.1247H136.066V56.867H143.317V58.1247L143.305 58.1364ZM144.915 56.8787H149.05C150.807 56.8787 151.797 57.8837 151.797 59.1238C151.787 59.6079 151.625 60.0763 151.332 60.4611C151.039 60.8459 150.631 61.1268 150.168 61.2631C150.668 61.3205 151.131 61.553 151.476 61.9197C151.821 62.2864 152.026 62.7637 152.054 63.2672C152.003 63.9801 151.672 64.6436 151.134 65.1119C150.596 65.5802 149.895 65.8151 149.185 65.765H144.915V56.8787ZM148.915 60.6401C149.274 60.6746 149.631 60.5654 149.91 60.3364C150.189 60.1075 150.366 59.7772 150.403 59.4177C150.406 59.3648 150.406 59.3118 150.403 59.259C150.403 58.5126 149.776 58.0013 148.775 58.0013H146.555V60.6401H148.915ZM148.81 64.5778C149.934 64.5778 150.567 64.0841 150.567 63.1967C150.567 62.3092 149.94 61.9566 148.939 61.9566H146.409V64.7071H148.78V64.5719L148.81 64.5778ZM157.829 56.7435C158.393 56.7631 158.948 56.8953 159.461 57.1326C159.975 57.3698 160.435 57.7073 160.817 58.1254C161.199 58.5434 161.494 59.0336 161.684 59.5673C161.875 60.101 161.958 60.6675 161.928 61.2337C161.968 61.8024 161.892 62.3733 161.705 62.9116C161.518 63.4499 161.224 63.9445 160.84 64.3651C160.457 64.7856 159.992 65.1235 159.474 65.3581C158.956 65.5928 158.397 65.7192 157.829 65.7298C157.261 65.7133 156.702 65.5832 156.185 65.347C155.668 65.1109 155.204 64.7735 154.819 64.3547C154.434 63.9359 154.136 63.444 153.943 62.9081C153.749 62.3722 153.665 61.8029 153.694 61.2337C153.655 60.6626 153.732 60.0894 153.922 59.5494C154.111 59.0095 154.409 58.514 154.796 58.0936C155.183 57.6731 155.652 57.3365 156.173 57.1043C156.695 56.8722 157.258 56.7494 157.829 56.7435ZM157.946 64.5132C159.439 64.5132 160.575 63.2731 160.575 61.269C160.575 59.2648 159.457 58.0013 157.946 58.0013H157.829C156.364 57.9895 155.193 59.2472 155.193 61.2631C155.193 63.279 156.318 64.5073 157.823 64.5073L157.946 64.5132ZM91.8627 75.4036C92.2732 75.8982 92.4953 76.5231 92.4893 77.1667C92.4893 79.4236 90.6095 80.9399 87.7281 80.9399C84.6067 80.9399 82.8498 79.4412 82.7268 76.6731H85.1045C85.1457 76.9927 85.2493 77.3011 85.4094 77.5806C85.5695 77.86 85.7829 78.105 86.0375 78.3016C86.2921 78.4981 86.5828 78.6423 86.893 78.7259C87.2032 78.8095 87.5268 78.8309 87.8453 78.7888C89.3386 78.7888 90.1 78.16 90.1 77.1609C90.1 76.1618 89.3386 75.6622 87.9624 75.6622H86.3402V73.5464H87.8453C89.2157 73.5464 89.9594 72.9175 89.9594 71.9125C89.9594 70.9075 89.2157 70.4197 87.8453 70.4197C87.1685 70.3959 86.5038 70.6031 85.9595 71.0075C85.5451 71.459 85.2846 72.0313 85.2158 72.6413H82.8264C82.8899 71.9486 83.0619 71.2703 83.3359 70.6313C83.7114 69.9459 84.2769 69.3845 84.964 69.0151C85.8149 68.5843 86.7577 68.3684 87.7106 68.3862C90.6915 68.3862 92.3488 69.7674 92.3488 71.9125C92.3543 72.5324 92.1445 73.1349 91.7555 73.6164C91.3665 74.0979 90.8225 74.4285 90.2171 74.5514C90.84 74.6533 91.4144 74.9518 91.8569 75.4036H91.8627ZM94.4922 71.8773H96.7469V75.2567H100.144V71.9008H102.398V80.6578H100.144V77.0316H96.7703V80.6578H94.5156L94.4922 71.8773ZM104.243 76.2852C104.243 73.2937 106 71.6422 108.003 71.795C108.523 71.7686 109.042 71.8822 109.504 72.1239C109.966 72.3657 110.356 72.7269 110.632 73.1703V71.9125H112.887V80.6872H110.574V79.4295C110.284 79.8603 109.892 80.2117 109.433 80.4519C108.974 80.692 108.462 80.8133 107.944 80.8047C106.24 80.9281 104.243 79.2943 104.243 76.2852ZM108.629 79.0416C109.748 79.0416 110.632 78.0366 110.632 76.2852C110.632 74.5338 109.748 73.5288 108.629 73.5288H108.495C107.376 73.5288 106.498 74.6513 106.498 76.2852C106.498 77.919 107.376 79.0416 108.495 79.0416H108.629ZM115.271 71.9008H117.613V75.2802H121.004V71.9008H123.259V80.6578H121.004V77.0316H117.613V80.6578H115.271V71.9008ZM134.169 71.9008V80.6578H131.914V74.3986L128.658 80.6578H125.677V71.9008H127.926V78.1541L131.048 71.9008H134.169ZM136.049 76.2852C136.049 73.6522 137.677 71.6422 140.148 71.795C142.62 71.9478 144.16 73.6639 144.16 76.2852V77.1315H138.303C138.336 77.6535 138.557 78.1456 138.926 78.5149C139.295 78.8842 139.786 79.105 140.306 79.1356H140.441C140.783 79.164 141.123 79.0653 141.398 78.8584C141.672 78.6514 141.861 78.3506 141.929 78.0131H144.183C143.977 78.9082 143.46 79.7005 142.725 80.2485C141.99 80.7965 141.085 81.0645 140.172 81.0045C139.287 80.9713 138.435 80.6651 137.731 80.1276C137.026 79.5901 136.504 78.8475 136.236 78.0013C136.051 77.4333 135.987 76.8326 136.049 76.2382V76.2852ZM141.905 75.2802C141.898 75.0571 141.846 74.8377 141.753 74.6348C141.661 74.4318 141.529 74.2493 141.366 74.0979C141.202 73.9465 141.01 73.8291 140.801 73.7526C140.592 73.6761 140.37 73.642 140.148 73.6522H140.025C139.813 73.632 139.598 73.6545 139.394 73.7183C139.191 73.7821 139.001 73.8859 138.838 74.0237C138.674 74.1615 138.54 74.3306 138.442 74.5211C138.344 74.7115 138.285 74.9196 138.268 75.1332C138.265 75.1822 138.265 75.2312 138.268 75.2802H141.905Z" fill="#1E2945"/>
<path d="M301.216 39.4334C299.698 40.5506 298.18 41.674 296.662 42.773C296.545 42.8239 296.418 42.8471 296.29 42.8408C296.163 42.8345 296.039 42.7988 295.927 42.7366C292.36 40.4747 288.48 39.3635 284.253 39.6095C276.967 40.0375 271.393 43.4653 267.798 49.7742C261.073 61.5693 268.083 76.4915 281.433 79.0266C286.625 80.0135 291.995 78.8979 296.365 75.9254C300.734 72.9528 303.743 68.3666 304.732 63.1753C304.965 61.9822 304.984 60.7465 305.12 59.5321C305.151 59.271 305.196 58.9249 305.372 58.7791C307.015 57.5222 308.688 56.3017 310.515 54.9537C311.174 59.0463 311.019 62.9082 309.881 66.7154C308.083 73.0051 303.921 78.3555 298.268 81.6467C286.731 88.5568 271.66 85.2384 263.96 74.1325C256.304 63.0934 258.526 47.7947 268.949 39.4273C279.371 31.0599 293.383 32.669 301.216 39.4334Z" fill="#1E2945"/>
<path d="M387.233 44.0265C385.312 45.4413 383.505 46.7104 381.768 48.0766C380.938 48.7567 379.884 49.104 378.811 49.0512C375.311 48.9874 371.807 49.0512 368.304 49.0148C367.563 49.0148 367.293 49.2273 367.311 49.9802C367.35 51.7138 367.353 53.4535 367.311 55.1871C367.293 55.9612 367.59 56.1373 368.313 56.1282C370.875 56.0857 373.441 56.0888 376.003 56.1282C378.128 56.1525 380.199 56.447 382.151 57.3427C385.424 58.8212 387.085 61.7571 386.984 65.54C386.833 71.2387 382.992 73.9347 378.426 74.63C376.393 74.8784 374.346 74.987 372.299 74.9548C368.741 75.0095 365.179 74.9548 361.618 74.9852C360.996 74.9852 360.771 74.8212 360.774 74.1746C360.788 64.3802 360.788 54.5869 360.774 44.7946C360.774 44.2542 360.874 43.9749 361.521 43.9779C369.925 43.9961 378.325 43.9961 386.72 43.9779C386.842 43.9901 386.945 44.0053 387.233 44.0265ZM371.813 60.995V61.1408C370.559 61.1408 369.308 61.159 368.055 61.1408C367.535 61.1408 367.338 61.332 367.341 61.833C367.341 64.3104 367.341 66.7868 367.341 69.2622C367.341 69.7783 367.578 69.9544 368.076 69.9453C370.808 69.8846 373.541 69.9271 376.273 69.7601C378.131 69.6478 379.813 68.9738 380.496 66.9912C381.371 64.4561 380.102 62.0789 377.415 61.5263C375.575 61.159 373.677 61.159 371.813 60.995Z" fill="#1E2945"/>
<path d="M429.626 74.9246H423.141V44.0357C423.445 44.0175 423.73 43.9902 424.006 43.9902C428.138 43.9902 432.267 43.9446 436.396 43.9902C438.974 44.0296 441.488 44.4972 443.777 45.7875C447.135 47.682 448.814 50.5936 448.984 54.419C449.133 57.704 448.264 60.6126 445.772 62.8896C443.866 64.6395 441.424 65.6925 438.843 65.8771C436.157 66.0987 433.445 66.0775 430.743 66.0775C429.857 66.0775 429.632 66.3629 429.653 67.2069C429.705 69.4536 429.672 71.7033 429.669 73.953C429.681 74.2718 429.641 74.5784 429.626 74.9246ZM429.681 55.0475C429.681 56.8114 429.662 58.5754 429.702 60.3393C429.702 60.5852 430.005 61.0407 430.151 61.0376C432.677 61.0376 435.231 61.1621 437.741 60.8555C440.999 60.4547 442.541 58.1473 442.423 54.4524C442.335 51.6228 440.331 49.4399 437.362 49.2031C435.045 49.0179 432.705 49.0877 430.379 49.027C429.772 49.0088 429.693 49.3579 429.696 49.8437C429.681 51.5773 429.681 53.3139 429.681 55.0475Z" fill="#1E2945"/>
<path d="M393.388 74.8759V44.0599H416.531C415.107 45.1165 413.687 46.0152 412.451 47.1233C411.67 47.8601 410.736 48.4159 409.716 48.7512C408.696 49.0865 407.615 49.1931 406.549 49.0634C404.685 48.8903 402.79 49.0634 400.911 49.0148C400.191 48.9996 399.894 49.1909 399.912 49.9681C399.961 51.9334 399.961 53.8978 399.912 55.8611C399.894 56.6353 400.173 56.8144 400.902 56.8083C404.973 56.778 409.048 56.8083 413.119 56.8083H414.197V61.8361H413.216C409.114 61.8361 405.019 61.8573 400.911 61.8178C400.103 61.8178 399.894 62.0759 399.909 62.841C399.954 64.8913 399.954 66.9417 399.909 68.992C399.894 69.7511 400.158 69.9605 400.896 69.9575C405.823 69.9302 410.751 69.9575 415.675 69.9272C416.483 69.9272 416.792 70.1306 416.741 70.9716C416.674 72.0767 416.72 73.1909 416.741 74.3112C416.741 74.7332 416.662 75.0034 416.134 75.0034C408.616 74.9792 401.099 74.966 393.582 74.964C393.514 74.9413 393.449 74.9118 393.388 74.8759V74.8759Z" fill="#1E2945"/>
<path d="M354.921 70.68C352.877 72.8281 350.222 74.2951 347.315 74.8819C341.938 75.9901 336.871 75.2857 332.463 71.8155C328.279 68.5183 326.518 64.0493 326.622 58.7847C326.761 51.5377 331.494 45.25 339.856 43.8716C344.795 43.058 349.498 43.7896 353.564 47.023C353.74 47.1627 353.901 47.3267 354.189 47.5726L352.2 49.0572C351.399 49.6644 350.655 50.5904 349.772 50.7331C348.961 50.8637 348.014 50.1259 347.118 49.8071C341.459 47.7699 333.863 50.4143 332.958 58.1988C332.202 64.6686 336.704 69.5688 342.94 69.7844C345.371 69.8834 347.776 69.2487 349.841 67.9627C350.449 67.5954 350.868 67.6379 351.414 68.0751C352.528 68.9646 353.694 69.7753 354.921 70.68Z" fill="#1E2945"/>
<path d="M275.394 52.7523C275.747 52.9466 276.002 53.0559 276.223 53.2138C278.901 54.8897 281.591 56.5535 284.238 58.2628C284.918 58.703 285.368 58.6909 286.024 58.2021C292.298 53.5346 298.596 48.8884 304.917 44.2635C305.117 44.1178 305.33 43.9842 305.712 43.7231L308.445 48.3804C308.727 48.8631 308.329 49.024 308.041 49.2396L297.457 57.0392C293.586 59.8931 289.703 62.7318 285.851 65.61C285.331 65.9956 284.985 66.0047 284.442 65.6556C281.667 63.8734 278.865 62.1307 276.056 60.4002C275.842 60.2985 275.664 60.1345 275.545 59.9297C275.425 59.7249 275.371 59.4889 275.388 59.2525C275.416 57.1273 275.394 55.002 275.394 52.7523Z" fill="#1E2945"/>
<path d="M203 65H206.645L209.931 61.22L213.217 65H217L212.25 59.74L216.669 55H213.024L210.069 58.38L207.114 55H203.331L207.694 59.88L203 65Z" fill="#1E2945"/>
<path d="M490 65H493.645L496.931 61.22L500.217 65H504L499.25 59.74L503.669 55H500.024L497.069 58.38L494.114 55H490.331L494.694 59.88L490 65Z" fill="#1E2945"/>
<g opacity="0.2">
<path fill-rule="evenodd" clip-rule="evenodd" d="M762.427 9.5568C763.068 9.54204 763.69 9.33847 764.216 8.97159C764.742 8.60472 765.148 8.09085 765.383 7.49433C765.618 6.89782 765.672 6.24519 765.538 5.61817C765.404 4.99116 765.088 4.41763 764.629 3.96943C764.171 3.52123 763.59 3.2183 762.961 3.09854C762.331 2.97878 761.679 3.04753 761.088 3.29619C760.497 3.54485 759.993 3.96236 759.638 4.49643C759.283 5.0305 759.094 5.65738 759.094 6.29857C759.097 6.73186 759.186 7.16022 759.356 7.55895C759.525 7.95769 759.772 8.31891 760.082 8.6218C760.392 8.92468 760.758 9.16326 761.161 9.32373C761.563 9.4842 761.994 9.56341 762.427 9.5568Z" fill="#1E2945"/>
</g>
<g opacity="0.7">
<path fill-rule="evenodd" clip-rule="evenodd" d="M747.744 24.0065C748.385 23.9917 749.007 23.7882 749.533 23.4213C750.059 23.0544 750.465 22.5406 750.7 21.944C750.935 21.3475 750.989 20.6949 750.855 20.0679C750.721 19.4409 750.405 18.8674 749.946 18.4192C749.488 17.971 748.907 17.668 748.277 17.5482C747.648 17.4285 746.996 17.4972 746.405 17.7459C745.814 17.9946 745.31 18.4121 744.955 18.9461C744.6 19.4802 744.411 20.1071 744.411 20.7483C744.414 21.1816 744.503 21.6099 744.672 22.0087C744.842 22.4074 745.089 22.7686 745.399 23.0715C745.709 23.3744 746.075 23.6129 746.478 23.7734C746.88 23.9339 747.311 24.0131 747.744 24.0065" fill="#1E2945"/>
</g>
<g opacity="0.4">
<path fill-rule="evenodd" clip-rule="evenodd" d="M765.518 16.7818C766.159 16.767 766.782 16.5635 767.307 16.1966C767.833 15.8297 768.239 15.3158 768.474 14.7193C768.71 14.1228 768.763 13.4702 768.629 12.8432C768.495 12.2162 768.179 11.6426 767.721 11.1944C767.262 10.7462 766.682 10.4433 766.052 10.3235C765.422 10.2037 764.771 10.2725 764.18 10.5212C763.589 10.7698 763.084 11.1873 762.729 11.7214C762.374 12.2555 762.185 12.8823 762.185 13.5235C762.188 13.9568 762.277 14.3852 762.447 14.7839C762.616 15.1827 762.863 15.5439 763.173 15.8468C763.483 16.1497 763.85 16.3882 764.252 16.5487C764.655 16.7092 765.085 16.7884 765.518 16.7818Z" fill="#1E2945"/>
</g>
<g opacity="0.8">
<path fill-rule="evenodd" clip-rule="evenodd" d="M744.652 16.7818C745.293 16.767 745.915 16.5635 746.441 16.1966C746.967 15.8297 747.373 15.3158 747.608 14.7193C747.843 14.1228 747.897 13.4702 747.763 12.8432C747.629 12.2162 747.313 11.6426 746.855 11.1944C746.396 10.7462 745.815 10.4433 745.186 10.3235C744.556 10.2037 743.904 10.2725 743.313 10.5212C742.722 10.7698 742.218 11.1873 741.863 11.7214C741.508 12.2555 741.319 12.8823 741.319 13.5235C741.322 13.9568 741.411 14.3852 741.581 14.7839C741.75 15.1827 741.997 15.5439 742.307 15.8468C742.617 16.1497 742.983 16.3882 743.386 16.5487C743.788 16.7092 744.219 16.7884 744.652 16.7818Z" fill="#1E2945"/>
</g>
<g opacity="0.5">
<path fill-rule="evenodd" clip-rule="evenodd" d="M762.427 24.0065C763.068 23.9917 763.69 23.7882 764.216 23.4213C764.742 23.0544 765.148 22.5406 765.383 21.944C765.618 21.3475 765.672 20.6949 765.538 20.0679C765.404 19.4409 765.088 18.8674 764.629 18.4192C764.171 17.971 763.59 17.668 762.961 17.5482C762.331 17.4285 761.679 17.4972 761.088 17.7459C760.497 17.9946 759.993 18.4121 759.638 18.9461C759.283 19.4802 759.094 20.1071 759.094 20.7483C759.097 21.1816 759.186 21.6099 759.356 22.0087C759.525 22.4074 759.772 22.7686 760.082 23.0715C760.392 23.3744 760.758 23.6129 761.161 23.7734C761.563 23.9339 761.994 24.0131 762.427 24.0065" fill="#1E2945"/>
</g>
<g opacity="0.8">
<path fill-rule="evenodd" clip-rule="evenodd" d="M747.744 9.5568C748.385 9.54204 749.007 9.33847 749.533 8.97159C750.059 8.60472 750.465 8.09085 750.7 7.49433C750.935 6.89782 750.989 6.24519 750.855 5.61817C750.721 4.99116 750.405 4.41763 749.946 3.96943C749.488 3.52123 748.907 3.2183 748.277 3.09854C747.648 2.97878 746.996 3.04753 746.405 3.29619C745.814 3.54485 745.31 3.96236 744.955 4.49643C744.6 5.0305 744.411 5.65738 744.411 6.29857C744.414 6.73186 744.503 7.16022 744.672 7.55895C744.842 7.95769 745.089 8.31891 745.399 8.6218C745.709 8.92468 746.075 9.16326 746.478 9.32373C746.88 9.4842 747.311 9.56341 747.744 9.5568Z" fill="#1E2945"/>
</g>
<g opacity="0.6">
<path fill-rule="evenodd" clip-rule="evenodd" d="M755.077 27.0315C755.716 27.0151 756.336 26.8106 756.86 26.4437C757.383 26.0768 757.786 25.5637 758.02 24.9686C758.253 24.3735 758.306 23.7228 758.171 23.098C758.036 22.4731 757.72 21.9019 757.263 21.4557C756.805 21.0095 756.226 20.7081 755.598 20.5893C754.97 20.4706 754.321 20.5396 753.732 20.7878C753.143 21.036 752.64 21.4525 752.286 21.985C751.933 22.5175 751.744 23.1424 751.744 23.7815C751.747 24.2144 751.836 24.6424 752.006 25.0407C752.176 25.439 752.423 25.7997 752.733 26.1019C753.043 26.4041 753.409 26.6419 753.812 26.8015C754.214 26.961 754.644 27.0392 755.077 27.0315Z" fill="#1E2945"/>
</g>
<path fill-rule="evenodd" clip-rule="evenodd" d="M755.077 6.5156C755.718 6.50084 756.341 6.29727 756.867 5.93039C757.392 5.56352 757.798 5.04965 758.033 4.45314C758.269 3.85662 758.322 3.20399 758.188 2.57697C758.054 1.94996 757.738 1.37644 757.28 0.928236C756.821 0.480036 756.241 0.177103 755.611 0.0573421C754.981 -0.0624183 754.33 0.00632887 753.739 0.254988C753.148 0.503647 752.643 0.921164 752.288 1.45523C751.934 1.9893 751.744 2.61618 751.744 3.25737C751.747 3.69066 751.836 4.11902 752.006 4.51775C752.175 4.91649 752.422 5.27771 752.732 5.5806C753.042 5.88348 753.409 6.12203 753.811 6.28251C754.214 6.44298 754.644 6.52221 755.077 6.5156" fill="#1E2945"/>
<path fill-rule="evenodd" clip-rule="evenodd" d="M566.791 37.8311C566.928 37.8187 567.066 37.8403 567.193 37.8941C567.319 37.9479 567.43 38.0322 567.516 38.1394C567.595 38.2458 567.65 38.3678 567.677 38.4972C567.704 38.6266 567.704 38.7603 567.675 38.8893L565.025 49.5223C564.935 49.8247 564.755 50.0923 564.508 50.289C564.273 50.483 563.98 50.5943 563.675 50.6056H547.75L553.075 29.3646H570.158L569.116 33.6062H556.617L555.567 37.8477L566.791 37.8311ZM553.292 46.3474H561.275L562.317 42.1059H554.342L553.292 46.3474Z" fill="#1E2945"/>
<path fill-rule="evenodd" clip-rule="evenodd" d="M578.274 29.323H596.482L591.166 50.514H572.958L578.274 29.323ZM581.741 33.5895L578.549 46.3475H587.657L590.849 33.6145L581.741 33.5895Z" fill="#1E2945"/>
<path fill-rule="evenodd" clip-rule="evenodd" d="M613.198 36.0229L603.19 50.5475H598.165L612.823 29.3065H616.915L620.931 50.5308L615.915 50.5475L613.198 36.0229Z" fill="#1E2945"/>
<path fill-rule="evenodd" clip-rule="evenodd" d="M635.756 37.7812H648.255L645.089 50.5142H628.014L633.339 29.2899H637.889L635.756 37.7812ZM641.589 46.256L642.639 42.0228H634.656L633.606 46.2476L641.589 46.256Z" fill="#1E2945"/>
<path fill-rule="evenodd" clip-rule="evenodd" d="M677.096 46.2308L681.371 29.2313H685.921L680.604 50.464L653.28 50.489L658.613 29.248H663.155L658.88 46.2475L665.696 46.2225L669.971 29.2147H674.521L670.246 46.2141L677.096 46.2308Z" fill="#1E2945"/>
<path fill-rule="evenodd" clip-rule="evenodd" d="M703.429 41.9809H695.454L693.312 50.514H688.763L694.087 29.273H711.17L705.845 50.514H701.295L703.429 41.9809ZM705.57 33.4729H697.587L696.546 37.7144H704.512L705.57 33.4729Z" fill="#1E2945"/>
<path fill-rule="evenodd" clip-rule="evenodd" d="M737.569 29.1815L732.236 50.4225H727.686L729.828 41.9227H728.778L720.878 50.4308H715.27L723.136 41.8977H718.428L720.636 33.4146H718.37L719.42 29.1815H737.569ZM725.153 33.448L724.061 37.7145H730.878L731.919 33.4813L725.153 33.448Z" fill="#1E2945"/>
<path fill-rule="evenodd" clip-rule="evenodd" d="M566.791 37.8311C566.928 37.8187 567.066 37.8403 567.193 37.8941C567.319 37.9479 567.43 38.0322 567.516 38.1394C567.595 38.2458 567.65 38.3678 567.677 38.4972C567.704 38.6266 567.704 38.7603 567.675 38.8893L565.025 49.5223C564.935 49.8247 564.755 50.0923 564.508 50.289C564.273 50.483 563.98 50.5943 563.675 50.6056H547.75L553.075 29.3646H570.158L569.116 33.6062H556.617L555.567 37.8477L566.791 37.8311ZM553.292 46.3474H561.275L562.317 42.1059H554.342L553.292 46.3474Z" fill="#1E2945"/>
<path fill-rule="evenodd" clip-rule="evenodd" d="M578.274 29.323H596.482L591.166 50.514H572.958L578.274 29.323ZM581.741 33.5895L578.549 46.3475H587.657L590.849 33.6145L581.741 33.5895Z" fill="#1E2945"/>
<path fill-rule="evenodd" clip-rule="evenodd" d="M613.198 36.0229L603.19 50.5475H598.165L612.823 29.3065H616.915L620.931 50.5308L615.915 50.5475L613.198 36.0229Z" fill="#1E2945"/>
<path fill-rule="evenodd" clip-rule="evenodd" d="M635.756 37.7812H648.255L645.089 50.5142H628.014L633.339 29.2899H637.889L635.756 37.7812ZM641.589 46.256L642.639 42.0228H634.656L633.606 46.2476L641.589 46.256Z" fill="#1E2945"/>
<path fill-rule="evenodd" clip-rule="evenodd" d="M677.815 46.24L682.09 29.2405H686.64L681.323 50.4732L653.999 50.4982L659.332 29.2572H663.874L659.599 46.2567L666.415 46.2317L670.69 29.2239H675.24L670.965 46.2234L677.815 46.24Z" fill="#1E2945"/>
<path fill-rule="evenodd" clip-rule="evenodd" d="M703.429 41.9809H695.454L693.312 50.514H688.763L694.087 29.273H711.17L705.845 50.514H701.295L703.429 41.9809ZM705.57 33.4729H697.587L696.546 37.7144H704.512L705.57 33.4729Z" fill="#1E2945"/>
<path fill-rule="evenodd" clip-rule="evenodd" d="M737.569 29.1815L732.236 50.4225H727.686L729.828 41.9227H728.778L720.878 50.4308H715.27L723.136 41.8977H718.428L720.636 33.4146H718.37L719.42 29.1815H737.569ZM725.153 33.448L724.061 37.7145H730.878L731.919 33.4813L725.153 33.448Z" fill="#1E2945"/>
<path fill-rule="evenodd" clip-rule="evenodd" d="M554.358 78.013L558.633 61.0135L551.825 61.0385L547.55 78.038H543L547.275 61.0385L545.008 61.0635L546.058 56.8303L564.274 56.822L558.941 78.063L554.358 78.013Z" fill="#1E2945"/>
<path fill-rule="evenodd" clip-rule="evenodd" d="M585.216 56.747L584.166 60.9802L575.066 60.9885L574.516 63.1218H583.624L582.574 67.3467L573.474 67.355L571.874 73.7298H580.982L579.932 77.9547L566.275 77.9714L571.599 56.7303L585.216 56.747Z" fill="#1E2945"/>
<path fill-rule="evenodd" clip-rule="evenodd" d="M596.141 69.505L593.974 78.0131H589.424L593.699 60.9969H591.432L592.482 56.7637H610.698L607.507 69.4967L596.141 69.505ZM598.282 60.9969L597.224 65.2301H604.04L605.09 61.0053L598.282 60.9969Z" fill="#1E2945"/>
<path fill-rule="evenodd" clip-rule="evenodd" d="M631.673 56.7139L630.623 60.9471L621.523 60.9554L620.973 63.0803H630.09L629.031 67.3135L619.932 67.3219L618.332 73.6967H627.448L626.398 77.9215L612.732 77.9382L618.057 56.6972L631.673 56.7139Z" fill="#1E2945"/>
<path fill-rule="evenodd" clip-rule="evenodd" d="M641.155 66.2637L638.214 77.9717H633.664L638.98 56.7307L644.672 56.714L646.672 71.4635L656.072 56.7307L661.755 56.714L656.422 77.955H651.872L654.813 66.247L647.322 77.955H642.764L641.155 66.2637Z" fill="#1E2945"/>
<path fill-rule="evenodd" clip-rule="evenodd" d="M682.696 56.6805L681.646 60.9137L672.546 60.922L671.996 63.0636L681.104 63.047L680.054 67.2802L670.955 67.2885L669.355 73.655L678.463 73.6466L677.413 77.8882L663.755 77.8965L669.08 56.6638L682.696 56.6805Z" fill="#1E2945"/>
<path fill-rule="evenodd" clip-rule="evenodd" d="M702.504 56.6636H707.054L701.746 77.8963H697.179L699.321 69.3966L691.354 69.3799L689.213 77.888H684.655L689.979 56.6636L694.529 56.647L692.388 65.155L700.371 65.1634L702.504 56.6636Z" fill="#1E2945"/>
<path fill-rule="evenodd" clip-rule="evenodd" d="M723.72 69.3801H715.745L713.603 77.8798H709.053L714.37 56.6388H731.461L726.136 77.8632H721.586L723.72 69.3801ZM725.811 60.9053H717.836L716.795 65.1469H724.803L725.811 60.9053Z" fill="#1E2945"/>
<path fill-rule="evenodd" clip-rule="evenodd" d="M554.358 78.013L558.633 61.0135L551.825 61.0385L547.55 78.038H543L547.275 61.0385L545.008 61.0635L546.058 56.8303L564.274 56.822L558.941 78.063L554.358 78.013Z" fill="#1E2945"/>
<path fill-rule="evenodd" clip-rule="evenodd" d="M585.216 56.747L584.166 60.9802L575.066 60.9885L574.516 63.1218H583.624L582.574 67.3467L573.474 67.355L571.874 73.7298H580.982L579.932 77.9547L566.275 77.9714L571.599 56.7303L585.216 56.747Z" fill="#1E2945"/>
<path fill-rule="evenodd" clip-rule="evenodd" d="M596.141 69.505L593.974 78.0131H589.424L593.699 60.9969H591.432L592.482 56.7637H610.698L607.507 69.4967L596.141 69.505ZM598.282 60.9969L597.224 65.2301H604.04L605.09 61.0053L598.282 60.9969Z" fill="#1E2945"/>
<path fill-rule="evenodd" clip-rule="evenodd" d="M631.673 56.7139L630.623 60.9471L621.523 60.9554L620.973 63.0803H630.09L629.031 67.3135L619.932 67.3219L618.332 73.6967H627.448L626.398 77.9215L612.732 77.9382L618.057 56.6972L631.673 56.7139Z" fill="#1E2945"/>
<path fill-rule="evenodd" clip-rule="evenodd" d="M641.155 66.2637L638.214 77.9717H633.664L638.98 56.7307L644.672 56.714L646.672 71.4635L656.072 56.7307L661.755 56.714L656.422 77.955H651.872L654.813 66.247L647.322 77.955H642.764L641.155 66.2637Z" fill="#1E2945"/>
<path fill-rule="evenodd" clip-rule="evenodd" d="M682.696 56.6805L681.646 60.9137L672.546 60.922L671.996 63.0636L681.104 63.047L680.054 67.2802L670.955 67.2885L669.355 73.655L678.463 73.6466L677.413 77.8882L663.755 77.8965L669.08 56.6638L682.696 56.6805Z" fill="#1E2945"/>
<path fill-rule="evenodd" clip-rule="evenodd" d="M702.504 56.6636H707.054L701.746 77.8963H697.179L699.321 69.3966L691.354 69.3799L689.213 77.888H684.655L689.979 56.6636L694.529 56.647L692.388 65.155L700.371 65.1634L702.504 56.6636Z" fill="#1E2945"/>
<path fill-rule="evenodd" clip-rule="evenodd" d="M723.72 69.3801H715.745L713.603 77.8798H709.053L714.37 56.6388H731.461L726.136 77.8632H721.586L723.72 69.3801ZM725.811 60.9053H717.836L716.795 65.1469H724.803L725.811 60.9053Z" fill="#1E2945"/>
<path d="M549.267 103.787H547.817V98.7377C547.815 98.6079 547.843 98.4795 547.9 98.3627C547.768 98.4147 547.625 98.4347 547.483 98.421H545.025C544.883 98.4354 544.74 98.4154 544.608 98.3627V98.3627C544.659 98.4808 544.682 98.6092 544.675 98.7377V103.787H543.225V97.121H549.292L549.267 103.787Z" fill="#1E2945"/>
<path d="M558.292 100.438C558.324 100.895 558.261 101.353 558.108 101.785C557.955 102.217 557.715 102.612 557.402 102.947C557.089 103.282 556.711 103.548 556.29 103.73C555.87 103.912 555.416 104.005 554.958 104.004C554.439 104.024 553.925 103.891 553.48 103.622C553.036 103.352 552.68 102.958 552.458 102.488H552.4C552.494 102.954 552.536 103.429 552.525 103.904V106.687H551.084V97.0877H552.483C552.497 97.5199 552.469 97.9524 552.4 98.3793H552.458C552.682 97.9096 553.037 97.5152 553.481 97.2444C553.925 96.9735 554.439 96.838 554.958 96.8544C555.416 96.8532 555.87 96.9465 556.29 97.1284C556.711 97.3104 557.089 97.577 557.402 97.9117C557.715 98.2463 557.955 98.6418 558.108 99.0736C558.261 99.5053 558.324 99.964 558.292 100.421M552.458 100.421C552.443 100.717 552.49 101.013 552.595 101.291C552.701 101.568 552.863 101.82 553.072 102.031C553.281 102.242 553.531 102.407 553.807 102.516C554.083 102.625 554.379 102.675 554.675 102.663C555.236 102.614 555.759 102.357 556.14 101.942C556.52 101.527 556.732 100.984 556.732 100.421C556.732 99.8577 556.52 99.315 556.14 98.8999C555.759 98.4849 555.236 98.2278 554.675 98.1793C554.379 98.1673 554.083 98.2173 553.807 98.3261C553.531 98.4348 553.281 98.5999 553.072 98.8109C552.863 99.0218 552.701 99.274 552.595 99.5512C552.49 99.8284 552.443 100.125 552.458 100.421" fill="#1E2945"/>
<path d="M566.716 100.437C566.75 101.182 566.56 101.919 566.17 102.554C565.781 103.189 565.211 103.693 564.533 104.002C563.855 104.311 563.1 104.409 562.366 104.285C561.631 104.161 560.95 103.82 560.411 103.306C559.872 102.792 559.499 102.129 559.34 101.401C559.181 100.673 559.243 99.9144 559.519 99.2223C559.795 98.5303 560.271 97.9365 560.887 97.5175C561.503 97.0984 562.23 96.8732 562.975 96.8708C563.458 96.8446 563.942 96.9177 564.396 97.0854C564.85 97.2531 565.266 97.5119 565.616 97.8459C565.966 98.18 566.245 98.5823 566.434 99.0279C566.623 99.4735 566.719 99.9532 566.716 100.437M560.783 100.437C560.777 100.874 560.9 101.303 561.138 101.669C561.376 102.036 561.718 102.323 562.12 102.494C562.522 102.666 562.966 102.713 563.395 102.632C563.824 102.55 564.219 102.342 564.53 102.035C564.84 101.728 565.053 101.335 565.139 100.907C565.226 100.479 565.183 100.035 565.016 99.6309C564.85 99.2271 564.566 98.8821 564.203 98.6399C563.839 98.3977 563.412 98.2691 562.975 98.2707C562.685 98.2541 562.395 98.2985 562.123 98.4012C561.851 98.5038 561.604 98.6624 561.397 98.8667C561.191 99.0709 561.029 99.3162 560.924 99.5868C560.818 99.8574 560.77 100.147 560.783 100.437Z" fill="#1E2945"/>
<path d="M574.399 100.437V100.712H570.016C569.712 100.738 569.406 100.702 569.116 100.604V100.604L569.175 100.779C569.185 101.042 569.248 101.299 569.361 101.537C569.474 101.774 569.634 101.986 569.831 102.16C570.028 102.333 570.258 102.465 570.508 102.547C570.757 102.63 571.021 102.66 571.283 102.637C571.679 102.641 572.071 102.554 572.429 102.384C572.787 102.213 573.102 101.964 573.349 101.654L574.241 102.596C573.887 103.044 573.432 103.404 572.914 103.645C572.396 103.887 571.829 104.004 571.258 103.987C570.339 103.956 569.467 103.573 568.824 102.916C568.181 102.259 567.816 101.38 567.804 100.46C567.792 99.5411 568.135 98.6527 568.761 97.9796C569.387 97.3065 570.248 96.9004 571.166 96.8459C573.191 96.8459 574.424 98.1959 574.424 100.421M569.183 99.7375H569.225C569.487 99.6246 569.772 99.5733 570.058 99.5875H571.783C572.491 99.5875 572.733 99.5875 572.883 99.7125C572.88 99.4875 572.831 99.2655 572.738 99.0606C572.645 98.8558 572.511 98.6726 572.343 98.5228C572.175 98.373 571.978 98.2598 571.764 98.1906C571.549 98.1214 571.323 98.0977 571.099 98.1209C570.632 98.0834 570.169 98.2296 569.808 98.5284C569.447 98.8271 569.217 99.2549 569.166 99.7208" fill="#1E2945"/>
<path d="M579.591 102.962L579.241 101.779C579.074 101.096 578.833 100.862 578.283 100.862H577.658C577.505 100.879 577.352 100.879 577.199 100.862V100.862C577.251 101.058 577.273 101.26 577.266 101.462V103.796H575.824V97.1292H577.266V99.2041C577.272 99.4008 577.25 99.5973 577.199 99.7875V99.7875C577.291 99.7875 577.474 99.7875 577.658 99.7875H578.283C578.841 99.7875 579.016 99.6541 579.266 98.9542L579.757 97.7542C579.957 97.2875 580.357 97.0792 581.099 97.0792H581.816V98.3625H581.474C581.307 98.3322 581.134 98.3672 580.991 98.4602C580.849 98.5531 580.747 98.6971 580.707 98.8625L580.466 99.4708C580.274 100.029 579.816 100.304 579.033 100.304V100.362C579.866 100.362 580.299 100.621 580.466 101.196L580.757 102.146C580.866 102.496 580.974 102.554 581.441 102.554H581.816V103.846H580.982C580.199 103.846 579.749 103.571 579.582 103.012" fill="#1E2945"/>
<path d="M588.974 97.0876V98.4209H586.832C586.693 98.4359 586.553 98.4159 586.424 98.3625C586.485 98.4777 586.514 98.6073 586.507 98.7375V103.846H585.057V98.7875C585.053 98.6584 585.078 98.53 585.132 98.4125C585.003 98.4659 584.863 98.4859 584.724 98.4709H582.591V97.1376L588.974 97.0876Z" fill="#1E2945"/>
<path d="M601.473 100.437C601.507 101.182 601.316 101.919 600.927 102.555C600.537 103.19 599.967 103.695 599.288 104.003C598.61 104.311 597.854 104.409 597.119 104.285C596.385 104.16 595.704 103.818 595.165 103.303C594.626 102.789 594.254 102.124 594.096 101.396C593.938 100.667 594.001 99.9085 594.278 99.2166C594.555 98.5246 595.033 97.9315 595.65 97.5134C596.267 97.0954 596.995 96.8715 597.74 96.8708C598.223 96.8446 598.707 96.9176 599.16 97.0854C599.614 97.2532 600.029 97.5122 600.378 97.8464C600.728 98.1805 601.006 98.5829 601.194 99.0285C601.383 99.4741 601.478 99.9536 601.473 100.437M595.54 100.437C595.532 100.876 595.655 101.307 595.893 101.676C596.13 102.045 596.473 102.334 596.876 102.508C597.279 102.681 597.725 102.73 598.156 102.649C598.588 102.568 598.985 102.36 599.298 102.052C599.61 101.744 599.824 101.35 599.912 100.92C600 100.49 599.957 100.044 599.79 99.638C599.623 99.2322 599.339 98.8855 598.974 98.6419C598.608 98.3984 598.179 98.2692 597.74 98.2707C597.449 98.2529 597.158 98.2964 596.886 98.3986C596.613 98.5007 596.365 98.6591 596.157 98.8634C595.95 99.0678 595.787 99.3136 595.681 99.5847C595.575 99.8559 595.527 100.146 595.54 100.437" fill="#1E2945"/>
<path d="M608.432 97.0876V98.4209H606.29C606.151 98.4359 606.011 98.4159 605.882 98.3625V98.3625C605.943 98.4777 605.971 98.6073 605.965 98.7375V103.846H604.515V98.7875C604.511 98.6584 604.536 98.53 604.59 98.4125V98.4125C604.461 98.4659 604.32 98.4859 604.182 98.4709H602.04V97.1376L608.432 97.0876Z" fill="#1E2945"/>
<path d="M622.815 95.1211C623.406 95.088 623.997 95.1746 624.554 95.3757C625.11 95.5769 625.62 95.8886 626.053 96.2919C626.487 96.6952 626.834 97.1818 627.074 97.7226C627.314 98.2634 627.443 98.8473 627.452 99.439C627.461 100.031 627.35 100.618 627.126 101.166C626.903 101.714 626.57 102.211 626.15 102.627C625.729 103.043 625.229 103.37 624.678 103.588C624.128 103.806 623.54 103.911 622.948 103.896C622.385 103.924 621.823 103.83 621.3 103.618C620.778 103.406 620.308 103.083 619.923 102.671H619.807V109.037H618.14V100.204C618.14 97.1043 619.948 95.1211 622.84 95.1211M622.84 102.421C623.221 102.424 623.599 102.351 623.951 102.205C624.304 102.059 624.623 101.843 624.89 101.571C625.156 101.298 625.366 100.975 625.505 100.62C625.643 100.265 625.709 99.8854 625.698 99.5042C625.698 99.1256 625.623 98.7507 625.479 98.4009C625.334 98.0511 625.121 97.7332 624.854 97.4655C624.586 97.1977 624.268 96.9854 623.918 96.8405C623.568 96.6956 623.193 96.621 622.815 96.621C622.436 96.621 622.061 96.6956 621.711 96.8405C621.362 96.9854 621.044 97.1977 620.776 97.4655C620.508 97.7332 620.296 98.0511 620.151 98.4009C620.006 98.7507 619.932 99.1256 619.932 99.5042C619.923 99.8898 619.991 100.273 620.134 100.632C620.277 100.99 620.49 101.316 620.762 101.59C621.033 101.863 621.357 102.08 621.714 102.225C622.071 102.371 622.454 102.443 622.84 102.438" fill="#1E2945"/>
<path d="M629.04 99.5123C628.978 98.573 629.2 97.6368 629.677 96.8255C630.154 96.0141 630.865 95.365 631.716 94.9627C632.567 94.5603 633.519 94.4232 634.449 94.5693C635.379 94.7153 636.243 95.1377 636.93 95.7815C637.617 96.4254 638.094 97.2609 638.299 98.1795C638.505 99.0981 638.429 100.057 638.083 100.932C637.736 101.807 637.134 102.558 636.355 103.086C635.576 103.615 634.656 103.897 633.715 103.895C633.119 103.918 632.525 103.822 631.967 103.613C631.409 103.404 630.897 103.087 630.463 102.679C630.028 102.272 629.678 101.782 629.434 101.238C629.19 100.695 629.056 100.108 629.04 99.5123M633.715 102.421C634.294 102.43 634.863 102.268 635.349 101.953C635.836 101.638 636.217 101.186 636.445 100.653C636.673 100.121 636.738 99.5324 636.63 98.9631C636.523 98.3939 636.248 97.8696 635.842 97.457C635.435 97.0444 634.915 96.7623 634.347 96.6466C633.779 96.5309 633.19 96.5869 632.654 96.8073C632.119 97.0278 631.661 97.4028 631.339 97.8846C631.017 98.3663 630.846 98.933 630.848 99.5123C630.835 99.8941 630.901 100.274 631.04 100.63C631.179 100.986 631.389 101.31 631.657 101.582C631.925 101.854 632.246 102.068 632.6 102.213C632.953 102.357 633.333 102.428 633.715 102.421Z" fill="#1E2945"/>
<path d="M644.714 103.896C644.11 103.945 643.503 103.869 642.93 103.673C642.357 103.477 641.831 103.165 641.384 102.756C640.937 102.347 640.58 101.85 640.334 101.297C640.088 100.744 639.959 100.145 639.955 99.5397C639.951 98.9341 640.072 98.3342 640.31 97.7775C640.549 97.2209 640.9 96.7194 641.341 96.3046C641.782 95.8898 642.304 95.5706 642.875 95.3669C643.445 95.1632 644.051 95.0795 644.656 95.1209C645.65 95.0544 646.636 95.3332 647.449 95.9102C648.261 96.4871 648.849 97.3269 649.114 98.2875H647.355C647.142 97.7688 646.772 97.3296 646.297 97.0309C645.822 96.7322 645.266 96.5889 644.706 96.6208C643.932 96.6208 643.19 96.9281 642.643 97.4751C642.096 98.022 641.789 98.7639 641.789 99.5374C641.789 100.311 642.096 101.053 642.643 101.6C643.19 102.147 643.932 102.454 644.706 102.454C645.278 102.493 645.847 102.343 646.326 102.027C646.805 101.711 647.167 101.246 647.355 100.704H649.13C648.868 101.668 648.283 102.514 647.474 103.1C646.664 103.687 645.679 103.979 644.681 103.929" fill="#1E2945"/>
<path d="M655.496 102.687L652.688 96.9124H652.638V103.712H650.997V95.3124H653.622L656.405 101.062H656.446L659.238 95.3124H661.855V103.712H660.205V96.9124H660.163L657.346 102.687H655.496Z" fill="#1E2945"/>
<path d="M663.688 99.5123C663.626 98.5734 663.848 97.6376 664.325 96.8264C664.802 96.0152 665.511 95.3662 666.362 94.9636C667.212 94.561 668.164 94.4234 669.094 94.5688C670.024 94.7141 670.888 95.1357 671.575 95.7787C672.262 96.4217 672.74 97.2564 672.946 98.1744C673.153 99.0924 673.078 100.051 672.733 100.927C672.387 101.802 671.787 102.553 671.009 103.082C670.231 103.612 669.312 103.895 668.371 103.896C667.775 103.918 667.181 103.822 666.622 103.613C666.063 103.404 665.551 103.087 665.116 102.68C664.681 102.272 664.33 101.782 664.085 101.239C663.84 100.695 663.705 100.108 663.688 99.5123M668.371 102.421C668.95 102.429 669.518 102.265 670.003 101.949C670.489 101.633 670.869 101.18 671.096 100.647C671.323 100.115 671.386 99.5266 671.278 98.9579C671.169 98.3892 670.894 97.8656 670.487 97.4539C670.08 97.0421 669.559 96.7608 668.992 96.6458C668.425 96.5308 667.836 96.5873 667.301 96.808C666.765 97.0288 666.308 97.4038 665.987 97.8854C665.665 98.367 665.494 98.9333 665.496 99.5123C665.483 99.8948 665.549 100.276 665.689 100.632C665.828 100.988 666.039 101.313 666.308 101.585C666.577 101.857 666.899 102.071 667.253 102.215C667.608 102.359 667.988 102.429 668.371 102.421Z" fill="#1E2945"/>
<path d="M673.913 103.787V102.054C674.097 102.052 674.278 102.013 674.447 101.94C674.616 101.867 674.768 101.761 674.896 101.629C675.255 101.061 675.475 100.415 675.538 99.7459L675.788 98.396C676.063 96.8543 676.621 95.2711 679.004 95.2711H682.338V103.721H680.638V96.8377H679.304C677.979 96.8377 677.688 97.196 677.371 98.9876L677.154 100.246C677.066 101.263 676.684 102.233 676.054 103.037C675.795 103.292 675.485 103.49 675.145 103.619C674.805 103.748 674.443 103.806 674.079 103.787H673.913Z" fill="#1E2945"/>
<path d="M684.246 99.5125C684.186 98.5754 684.408 97.6419 684.885 96.8331C685.363 96.0244 686.072 95.3777 686.921 94.977C687.77 94.5764 688.72 94.4403 689.648 94.5863C690.575 94.7324 691.437 95.1538 692.122 95.7961C692.807 96.4383 693.284 97.2717 693.489 98.1879C693.694 99.1042 693.62 100.061 693.274 100.934C692.929 101.807 692.33 102.557 691.553 103.085C690.777 103.613 689.86 103.895 688.921 103.896C688.325 103.918 687.731 103.822 687.173 103.613C686.615 103.404 686.103 103.087 685.669 102.679C685.234 102.272 684.884 101.782 684.64 101.238C684.396 100.695 684.262 100.108 684.246 99.5125M688.921 102.421C689.5 102.431 690.069 102.268 690.555 101.953C691.041 101.638 691.423 101.186 691.651 100.653C691.879 100.121 691.944 99.5326 691.836 98.9633C691.729 98.3941 691.454 97.8697 691.048 97.4572C690.641 97.0446 690.121 96.7624 689.553 96.6467C688.985 96.531 688.396 96.587 687.86 96.8075C687.325 97.028 686.867 97.403 686.545 97.8847C686.223 98.3665 686.052 98.9331 686.054 99.5125C686.041 99.8942 686.107 100.275 686.246 100.63C686.385 100.986 686.595 101.31 686.863 101.582C687.131 101.854 687.452 102.069 687.806 102.213C688.159 102.357 688.539 102.428 688.921 102.421" fill="#1E2945"/>
<path d="M695.587 105.754H693.92V102.179H695.037C695.546 101.499 695.878 100.703 696.004 99.8626L696.37 98.296C696.729 96.7961 697.387 95.2961 699.504 95.2961H702.837V102.179H704.07V105.779H702.403V103.737H695.57L695.587 105.754ZM701.154 102.188V96.8044H699.554C698.512 96.8044 698.162 97.6377 697.954 98.471L697.579 100.096C697.465 100.807 697.179 101.479 696.745 102.054V102.179L701.154 102.188Z" fill="#1E2945"/>
<path d="M710.037 103.896C707.32 103.896 705.337 102.037 705.337 99.5123C705.338 98.9147 705.461 98.3235 705.698 97.7749C705.935 97.2262 706.281 96.7315 706.715 96.3207C707.149 95.91 707.663 95.5918 708.223 95.3855C708.784 95.1793 709.381 95.0892 709.978 95.1209C710.578 95.0974 711.175 95.1982 711.734 95.4169C712.293 95.6355 712.8 95.9674 713.224 96.3916C713.648 96.8157 713.98 97.323 714.199 97.8816C714.417 98.4402 714.518 99.038 714.495 99.6374V99.9957H707.045C707.137 100.705 707.498 101.352 708.053 101.803C708.608 102.255 709.315 102.476 710.028 102.421C711.028 102.421 712.22 102.054 712.528 101.204H714.286C713.753 103.054 711.787 103.896 710.012 103.896M707.053 92.2292H708.82V93.9709H707.053V92.2292ZM712.686 98.7041C712.567 98.0732 712.221 97.508 711.712 97.1162C711.204 96.7244 710.569 96.5333 709.928 96.5791C709.284 96.5541 708.65 96.7517 708.134 97.1387C707.618 97.5256 707.251 98.0784 707.095 98.7041H712.686ZM710.895 92.2292H712.661V93.9709H710.895V92.2292Z" fill="#1E2945"/>
<path d="M722.561 95.3124V98.6457H723.986L726.003 95.3124H727.886L725.386 99.3206L728.094 103.721H726.169L724.011 100.179H722.561V103.721H720.944V100.179H719.494L717.336 103.721H715.411L718.12 99.3206L715.62 95.3124H717.503L719.519 98.6457H720.944V95.3124H722.561Z" fill="#1E2945"/>
<path d="M729.278 99.9291V95.3043H730.986V97.6958H731.044C731.369 97.2849 731.786 96.9551 732.26 96.7324C732.734 96.5097 733.254 96.4002 733.778 96.4126C734.271 96.3957 734.763 96.4787 735.223 96.6565C735.684 96.8342 736.103 97.1031 736.457 97.447C736.812 97.791 737.092 98.2028 737.284 98.658C737.475 99.1131 737.572 99.6022 737.569 100.096C737.562 100.62 737.449 101.137 737.236 101.616C737.022 102.095 736.713 102.526 736.328 102.881C735.943 103.237 735.489 103.51 734.995 103.685C734.5 103.859 733.976 103.931 733.453 103.896C732.915 103.924 732.377 103.842 731.872 103.656C731.367 103.469 730.905 103.181 730.515 102.81C730.125 102.438 729.815 101.992 729.604 101.496C729.392 101.001 729.284 100.468 729.286 99.9291M733.411 102.429C733.854 102.414 734.283 102.269 734.645 102.013C735.006 101.756 735.284 101.398 735.443 100.984C735.603 100.571 735.637 100.119 735.541 99.686C735.446 99.253 735.225 98.8577 734.907 98.5493C734.588 98.2409 734.186 98.0332 733.75 97.952C733.314 97.8708 732.864 97.9197 732.455 98.0926C732.047 98.2655 731.699 98.5547 731.454 98.9243C731.209 99.2939 731.078 99.7274 731.078 100.171C731.072 100.475 731.128 100.778 731.244 101.06C731.36 101.342 731.533 101.596 731.752 101.808C731.971 102.02 732.232 102.185 732.517 102.291C732.802 102.398 733.107 102.445 733.411 102.429" fill="#1E2945"/>
</svg>
