<svg width="307" height="30" viewBox="0 0 307 30" fill="none" xmlns="http://www.w3.org/2000/svg">
<path d="M154.884 22.9804V12.9792C154.871 11.1278 154.129 9.35642 152.821 8.05136C151.512 6.74629 149.742 6.01333 147.897 6.01227H137.904C136.059 6.01333 134.289 6.74615 132.98 8.0511C131.67 9.35604 130.928 11.1274 130.914 12.9792V22.9804C130.906 24.7176 131.545 26.3951 132.706 27.6842C133.866 28.9733 135.464 29.7811 137.187 29.9494L144.543 23.9841H136.607V21.0992L144.446 14.6689H136.915V11.9334H149.128V14.8014L141.286 21.2339H149.128V24.1082L141.913 29.9999H147.872C148.793 30.0033 149.705 29.824 150.556 29.4725C151.407 29.121 152.181 28.6042 152.832 27.9517C153.484 27.2992 154 26.5239 154.352 25.6704C154.705 24.8169 154.885 23.902 154.884 22.9783V22.9804ZM160.849 10.431H162.681C162.96 10.4027 163.24 10.4666 163.479 10.6128C163.719 10.759 163.904 10.9797 164.006 11.2412C164.074 11.4153 164.103 11.6018 164.092 11.7882C164.105 12.12 163.987 12.4434 163.764 12.6883C163.54 12.9333 163.23 13.0801 162.899 13.097C162.834 13.1013 162.768 13.1013 162.702 13.097H161.419V14.8435H160.838L160.849 10.431ZM162.595 12.5352C163.178 12.5352 163.537 12.2617 163.537 11.7251C163.537 11.1886 163.178 10.9171 162.595 10.9171H161.419V12.5352L162.595 12.5458V12.5352ZM166 11.5926C166.204 11.5979 166.404 11.644 166.589 11.7282C166.774 11.8125 166.941 11.9331 167.079 12.0829C167.217 12.2327 167.323 12.4088 167.392 12.6007C167.461 12.7926 167.491 12.9964 167.481 13.2002C167.495 13.4047 167.467 13.61 167.4 13.8035C167.332 13.997 167.226 14.1745 167.087 14.3251C166.948 14.4757 166.78 14.5962 166.593 14.6792C166.407 14.7622 166.205 14.806 166 14.8077C165.797 14.8027 165.597 14.7568 165.412 14.6726C165.226 14.5885 165.06 14.4679 164.922 14.318C164.784 14.1681 164.677 13.9919 164.608 13.7999C164.539 13.6079 164.509 13.404 164.52 13.2002C164.506 12.9957 164.534 12.7905 164.602 12.5971C164.67 12.4038 164.776 12.2264 164.915 12.0759C165.053 11.9254 165.221 11.8048 165.408 11.7217C165.595 11.6386 165.796 11.5947 166 11.5926ZM166 14.4164C166.535 14.4164 166.942 13.9661 166.942 13.2528C166.942 12.5394 166.535 12.0849 166 12.0849H165.952C165.418 12.0849 165.011 12.5352 165.011 13.2528C165.011 13.9703 165.418 14.4164 165.952 14.4164H166ZM169.538 11.5926C169.769 11.5684 170.003 11.6159 170.207 11.7287C170.41 11.8416 170.575 12.0143 170.678 12.2238C170.746 12.3627 170.785 12.5136 170.794 12.6678H170.259C170.244 12.4944 170.164 12.3332 170.035 12.2175C169.978 12.1576 169.909 12.1107 169.833 12.0802C169.756 12.0496 169.674 12.0362 169.592 12.0407H169.544C169.408 12.0521 169.276 12.0903 169.155 12.1531C169.034 12.2159 168.926 12.3021 168.838 12.4066C168.75 12.5112 168.684 12.6322 168.643 12.7626C168.602 12.893 168.586 13.0302 168.598 13.1665C168.598 13.1791 168.598 13.1938 168.598 13.2065C168.598 13.8377 168.915 14.4164 169.54 14.3743H169.588C169.671 14.3805 169.754 14.3672 169.831 14.3354C169.908 14.3036 169.976 14.2543 170.03 14.1912C170.098 14.1381 170.153 14.0709 170.192 13.9942C170.23 13.9175 170.252 13.8332 170.255 13.7472H170.789C170.76 14.0552 170.612 14.3396 170.377 14.54C170.142 14.7404 169.839 14.8409 169.531 14.8204C169.316 14.8282 169.101 14.7924 168.9 14.7151C168.699 14.6377 168.515 14.5205 168.36 14.3703C168.205 14.2202 168.081 14.0402 167.997 13.8411C167.913 13.6421 167.869 13.428 167.869 13.2117C167.869 12.9954 167.913 12.7814 167.997 12.5823C168.081 12.3832 168.205 12.2033 168.36 12.0531C168.515 11.903 168.699 11.7857 168.9 11.7084C169.101 11.6311 169.316 11.5953 169.531 11.6031L169.538 11.5926ZM172.857 11.5926C173.088 11.5683 173.321 11.6159 173.524 11.7288C173.727 11.8417 173.891 12.0145 173.993 12.2238C174.06 12.3627 174.1 12.5136 174.108 12.6678H173.574C173.553 12.4963 173.474 12.3372 173.349 12.2175C173.292 12.1572 173.222 12.1101 173.144 12.0796C173.067 12.0491 172.984 12.0358 172.901 12.0407H172.848C172.709 12.0524 172.574 12.0922 172.451 12.1576C172.328 12.223 172.219 12.3128 172.131 12.4215C172.044 12.5302 171.979 12.6556 171.94 12.7901C171.902 12.9247 171.892 13.0656 171.909 13.2044C171.909 13.8356 172.217 14.4143 172.848 14.3722H172.892C172.976 14.3794 173.061 14.3666 173.139 14.3348C173.217 14.303 173.286 14.2531 173.341 14.1891C173.406 14.1342 173.46 14.0666 173.499 13.9903C173.537 13.9139 173.56 13.8305 173.565 13.7451H174.106C174.077 14.0529 173.929 14.337 173.694 14.5372C173.459 14.7375 173.156 14.8383 172.848 14.8183C172.633 14.8261 172.418 14.7903 172.217 14.7129C172.016 14.6356 171.832 14.5184 171.677 14.3682C171.522 14.2181 171.398 14.0381 171.314 13.839C171.23 13.64 171.186 13.4259 171.186 13.2096C171.186 12.9933 171.23 12.7793 171.314 12.5802C171.398 12.3811 171.522 12.2012 171.677 12.051C171.832 11.9009 172.016 11.7836 172.217 11.7063C172.418 11.629 172.633 11.5932 172.848 11.601L172.857 11.5926ZM177.65 11.6936V14.8288H177.117V12.2617L175.593 14.8183H174.878V11.6936H175.413V14.2396L176.977 11.6936H177.65ZM181.413 11.6936V14.8288H180.879V12.2617L179.348 14.8183H178.635V11.6936H179.168V14.2817L180.734 11.6936H181.413ZM179.526 10.431C179.568 10.7488 179.703 10.9255 179.975 10.9255C180.09 10.929 180.202 10.8867 180.287 10.8079C180.371 10.7292 180.421 10.6202 180.426 10.5047C180.428 10.4823 180.428 10.4598 180.426 10.4374H180.875C180.875 11.0223 180.512 11.2475 179.929 11.2475C179.346 11.2475 178.992 10.9655 178.992 10.431H179.526ZM183.646 11.601C183.8 11.5845 183.955 11.5994 184.102 11.6449C184.25 11.6905 184.387 11.7656 184.504 11.8657C184.622 11.9659 184.718 12.089 184.787 12.2276C184.856 12.3662 184.896 12.5174 184.904 12.672H184.38C184.367 12.5014 184.293 12.3414 184.171 12.2217C184.112 12.1622 184.042 12.1156 183.965 12.0852C183.888 12.0547 183.805 12.041 183.722 12.045H183.674C183.537 12.0545 183.404 12.0912 183.281 12.1529C183.159 12.2146 183.049 12.3001 182.96 12.4045C182.871 12.5088 182.803 12.6298 182.761 12.7607C182.718 12.8915 182.702 13.0294 182.713 13.1665C182.712 13.1798 182.712 13.1932 182.713 13.2065C182.713 13.8377 183.028 14.4164 183.655 14.3743H183.703C183.787 14.3815 183.871 14.3687 183.949 14.3369C184.027 14.3051 184.097 14.2552 184.152 14.1912C184.214 14.135 184.265 14.0668 184.301 13.9905C184.337 13.9143 184.358 13.8316 184.361 13.7472H184.896C184.866 14.055 184.718 14.3391 184.484 14.5394C184.249 14.7396 183.946 14.8404 183.638 14.8204C183.329 14.8234 183.026 14.7281 182.774 14.5483C182.521 14.3684 182.332 14.1131 182.233 13.8188C182.167 13.6233 182.144 13.416 182.164 13.2107C182.149 13.0067 182.175 12.8017 182.241 12.6083C182.308 12.4149 182.413 12.2373 182.551 12.0862C182.688 11.9352 182.855 11.8141 183.041 11.7303C183.227 11.6464 183.428 11.6017 183.632 11.5989L183.646 11.601ZM186.792 13.3054L186.209 13.8398V14.8267H185.674V11.6936H186.209V13.2149L187.781 11.6936H188.41L187.152 12.9056L188.498 14.8288H187.825L186.794 13.3075L186.792 13.3054ZM190.146 11.601C190.453 11.6091 190.749 11.7096 190.998 11.8893C191.247 12.0691 191.436 12.3198 191.541 12.6089C191.609 12.8011 191.638 13.0048 191.629 13.2086C191.655 13.6029 191.525 13.9916 191.267 14.2903C191.009 14.5889 190.644 14.7734 190.251 14.8035H190.155C189.951 14.7982 189.751 14.7521 189.566 14.6678C189.381 14.5836 189.214 14.463 189.077 14.3132C188.939 14.1634 188.832 13.9873 188.763 13.7954C188.694 13.6035 188.664 13.3997 188.674 13.1959C188.662 12.7867 188.811 12.3889 189.087 12.088C189.364 11.7871 189.747 11.607 190.155 11.5862L190.146 11.601ZM190.19 14.4248C190.725 14.4248 191.136 13.9745 191.136 13.2612C191.136 12.5479 190.729 12.0934 190.19 12.0934H190.146C189.622 12.0849 189.203 12.5352 189.203 13.2528C189.203 13.9703 189.603 14.4164 190.142 14.4164L190.19 14.4248ZM193.69 11.5926C193.857 11.5875 194.023 11.6155 194.179 11.675C194.335 11.7344 194.478 11.8242 194.599 11.9391C194.721 12.054 194.819 12.1918 194.887 12.3446C194.955 12.4975 194.993 12.6623 194.998 12.8298C195.001 12.8796 195.001 12.9295 194.998 12.9792V13.2969H192.797C192.77 13.5637 192.849 13.8303 193.015 14.0396C193.182 14.2489 193.425 14.3841 193.69 14.4164H193.738C193.9 14.4266 194.061 14.3781 194.19 14.2796C194.32 14.1812 194.41 14.0393 194.445 13.8798H194.979C194.919 14.1757 194.754 14.4393 194.513 14.6211C194.273 14.8028 193.975 14.8902 193.675 14.8667C193.277 14.817 192.911 14.6232 192.646 14.3217C192.381 14.0202 192.234 13.6319 192.234 13.2296C192.234 12.8274 192.381 12.439 192.646 12.1375C192.911 11.836 193.277 11.6422 193.675 11.5926H193.69ZM194.445 12.895C194.454 12.79 194.441 12.6841 194.407 12.5845C194.373 12.4848 194.318 12.3936 194.245 12.317C194.173 12.2403 194.085 12.18 193.988 12.14C193.891 12.1 193.786 12.0812 193.681 12.0849H193.637C193.42 12.0877 193.212 12.1727 193.054 12.3229C192.897 12.4731 192.802 12.6775 192.788 12.895H194.445ZM162.057 17.015C162.26 17.0215 162.459 17.0685 162.644 17.1532C162.829 17.2379 162.995 17.3587 163.133 17.5086C163.271 17.6584 163.377 17.8343 163.447 18.0259C163.516 18.2175 163.547 18.4211 163.537 18.6247C163.55 18.8291 163.522 19.034 163.454 19.2271C163.386 19.4201 163.279 19.5973 163.141 19.7477C163.002 19.8981 162.835 20.0186 162.648 20.1019C162.462 20.1853 162.261 20.2296 162.057 20.2323C161.853 20.227 161.653 20.1809 161.468 20.0966C161.283 20.0124 161.116 19.8918 160.978 19.742C160.84 19.5921 160.734 19.4161 160.665 19.2242C160.596 19.0323 160.566 18.8285 160.576 18.6247C160.558 18.4193 160.584 18.2124 160.65 18.0174C160.717 17.8224 160.824 17.6436 160.964 17.4927C161.104 17.3418 161.273 17.2214 161.461 17.1392C161.649 17.057 161.851 17.0147 162.057 17.015ZM162.098 19.7968C162.633 19.7968 163.04 19.3528 163.04 18.6353C163.04 17.9177 162.639 17.4653 162.098 17.4653H162.057C161.526 17.4653 161.107 17.9156 161.107 18.6374C161.107 19.3591 161.507 19.7989 162.048 19.7989L162.098 19.7968ZM164.296 17.2402C164.323 16.9814 164.417 16.7342 164.568 16.5227C164.705 16.3793 164.872 16.2687 165.057 16.1991C165.242 16.1295 165.441 16.1027 165.638 16.1208H166.349C166.573 16.1208 166.663 16.0787 166.663 15.8956V15.8093H167.156V15.9861C167.156 16.4364 166.973 16.6173 166.439 16.6173H165.638C164.923 16.6173 164.696 16.9772 164.65 17.8294C164.782 17.6541 164.951 17.5107 165.145 17.4095C165.339 17.3083 165.553 17.2519 165.772 17.2444C165.961 17.2444 166.148 17.2831 166.322 17.3581C166.496 17.4332 166.653 17.5429 166.783 17.6808C166.913 17.8186 167.013 17.9816 167.079 18.1598C167.144 18.3381 167.172 18.5277 167.162 18.7173C167.176 18.9221 167.148 19.1274 167.081 19.3213C167.014 19.5152 166.909 19.6937 166.773 19.8461C166.636 19.9986 166.47 20.1219 166.285 20.2089C166.099 20.2958 165.899 20.3446 165.694 20.3523C164.711 20.3523 164.214 19.6347 164.214 18.4585C164.207 18.0474 164.234 17.6364 164.294 17.2297L164.296 17.2402ZM165.732 19.8452C166.267 19.8452 166.625 19.3528 166.625 18.6773C166.625 18.0019 166.267 17.6063 165.732 17.6063H165.694C165.565 17.6103 165.437 17.6404 165.319 17.6947C165.201 17.7491 165.095 17.8266 165.008 17.9227C164.92 18.0188 164.853 18.1316 164.809 18.2544C164.766 18.3771 164.747 18.5073 164.755 18.6374C164.736 18.7816 164.747 18.9281 164.787 19.0679C164.826 19.2078 164.894 19.3381 164.985 19.4509C165.077 19.5637 165.19 19.6567 165.319 19.7241C165.447 19.7915 165.588 19.832 165.732 19.8431V19.8452ZM172.767 19.7547V21.0572H172.274V20.2155H167.923V17.0634H168.458V19.7442H169.806V17.0634H170.332V19.7442H171.678V17.0634H172.219V19.7442H172.764L172.767 19.7547ZM174.605 17.0192C174.785 17.0149 174.963 17.0488 175.129 17.1186C175.295 17.1885 175.444 17.2927 175.566 17.4245C175.689 17.5563 175.782 17.7126 175.84 17.8832C175.898 18.0538 175.92 18.2348 175.903 18.4143V18.751H173.712C173.686 19.0191 173.765 19.287 173.932 19.4974C174.1 19.7078 174.343 19.844 174.61 19.8767H174.654C174.817 19.8869 174.979 19.838 175.109 19.7387C175.239 19.6395 175.33 19.4966 175.364 19.3359H175.899C175.84 19.6301 175.676 19.8926 175.438 20.0739C175.2 20.2552 174.904 20.343 174.605 20.3207C174.395 20.3232 174.187 20.2792 173.996 20.1919C173.804 20.1045 173.634 19.9759 173.498 19.8152C173.362 19.6545 173.262 19.4657 173.207 19.2621C173.152 19.0586 173.141 18.8453 173.178 18.6374C173.178 17.56 173.888 16.9751 174.605 17.0171V17.0192ZM175.413 18.2818C175.422 18.1767 175.408 18.0709 175.373 17.9714C175.339 17.8719 175.283 17.7808 175.211 17.7043C175.139 17.6278 175.051 17.5675 174.954 17.5274C174.857 17.4873 174.752 17.4683 174.647 17.4716H174.605C174.387 17.4743 174.179 17.559 174.02 17.7091C173.862 17.8592 173.765 18.0636 173.75 18.2818H175.413ZM177.987 17.0192C178.137 17.0035 178.289 17.0177 178.434 17.061C178.578 17.1042 178.713 17.1757 178.829 17.2713C178.946 17.367 179.043 17.4848 179.115 17.6181C179.186 17.7514 179.23 17.8976 179.245 18.0482C179.246 18.0629 179.246 18.0777 179.245 18.0924H178.719C178.707 17.9347 178.641 17.786 178.533 17.6715C178.475 17.6102 178.406 17.562 178.328 17.5304C178.251 17.4988 178.167 17.4845 178.084 17.4885H177.998C177.716 17.5172 177.458 17.6566 177.279 17.8763C177.099 18.096 177.014 18.378 177.042 18.6605C177.042 19.2918 177.358 19.8725 177.983 19.8241H178.025C178.109 19.8325 178.193 19.8208 178.272 19.7901C178.35 19.7594 178.42 19.7105 178.476 19.6474C178.542 19.5918 178.596 19.5231 178.635 19.4456C178.673 19.3682 178.696 19.2836 178.7 19.1971H179.235C179.204 19.5042 179.055 19.7873 178.821 19.9873C178.586 20.1873 178.284 20.2886 177.977 20.2702C177.771 20.2732 177.567 20.2326 177.377 20.1511C177.188 20.0696 177.018 19.949 176.878 19.7971C176.738 19.6453 176.632 19.4656 176.566 19.2698C176.5 19.074 176.475 18.8664 176.495 18.6605C176.522 17.6757 177.063 16.9772 177.981 17.015L177.987 17.0192ZM182.221 17.5179H181.195V20.1945H180.661V17.5137H179.629V17.0634H182.225V17.5137L182.221 17.5179ZM182.797 17.0676H184.278C184.907 17.0676 185.261 17.4275 185.261 17.8714C185.258 18.0447 185.199 18.2125 185.095 18.3502C184.99 18.488 184.844 18.5886 184.678 18.6374C184.857 18.6579 185.023 18.7412 185.146 18.8725C185.27 19.0037 185.343 19.1746 185.353 19.3549C185.335 19.6101 185.216 19.8477 185.024 20.0153C184.831 20.183 184.58 20.2671 184.326 20.2492H182.797V17.0676ZM184.229 18.4143C184.358 18.4267 184.486 18.3876 184.585 18.3056C184.685 18.2236 184.749 18.1054 184.762 17.9766C184.763 17.9577 184.763 17.9388 184.762 17.9198C184.762 17.6526 184.538 17.4695 184.179 17.4695H183.384V18.4143H184.229ZM184.192 19.8241C184.594 19.8241 184.821 19.6474 184.821 19.3296C184.821 19.0119 184.596 18.8857 184.238 18.8857H183.332V19.8704H184.181V19.822L184.192 19.8241ZM187.421 17.0192C187.623 17.0262 187.821 17.0736 188.005 17.1585C188.189 17.2435 188.354 17.3643 188.491 17.514C188.627 17.6637 188.733 17.8392 188.801 18.0302C188.869 18.2213 188.899 18.4241 188.888 18.6268C188.902 18.8304 188.875 19.0348 188.808 19.2276C188.741 19.4203 188.636 19.5974 188.499 19.7479C188.361 19.8985 188.195 20.0195 188.01 20.1035C187.824 20.1875 187.624 20.2328 187.421 20.2365C187.217 20.2306 187.017 20.1841 186.832 20.0995C186.647 20.015 186.481 19.8942 186.343 19.7442C186.205 19.5943 186.098 19.4182 186.029 19.2263C185.96 19.0344 185.93 18.8306 185.94 18.6268C185.926 18.4224 185.954 18.2172 186.022 18.0238C186.09 17.8305 186.196 17.6531 186.335 17.5026C186.473 17.3521 186.641 17.2315 186.828 17.1484C187.015 17.0653 187.216 17.0213 187.421 17.0192ZM187.462 19.801C187.997 19.801 188.404 19.357 188.404 18.6395C188.404 17.9219 188.003 17.4695 187.462 17.4695H187.421C186.896 17.4653 186.477 17.9156 186.477 18.6374C186.477 19.3591 186.88 19.7989 187.418 19.7989L187.462 19.801ZM163.803 23.7C163.95 23.8771 164.03 24.1008 164.027 24.3313C164.027 25.1393 163.354 25.6822 162.323 25.6822C161.205 25.6822 160.576 25.1456 160.532 24.1545H161.383C161.398 24.269 161.435 24.3794 161.493 24.4794C161.55 24.5795 161.626 24.6672 161.718 24.7376C161.809 24.8079 161.913 24.8596 162.024 24.8895C162.135 24.9194 162.251 24.9271 162.365 24.912C162.899 24.912 163.172 24.6869 163.172 24.3292C163.172 23.9715 162.899 23.7926 162.407 23.7926H161.826V23.0351H162.365C162.855 23.0351 163.122 22.81 163.122 22.4501C163.122 22.0903 162.855 21.9157 162.365 21.9157C162.122 21.9071 161.884 21.9813 161.69 22.1261C161.541 22.2878 161.448 22.4926 161.423 22.7111H160.568C160.591 22.463 160.652 22.2202 160.75 21.9914C160.885 21.746 161.087 21.545 161.333 21.4128C161.638 21.2585 161.975 21.1813 162.317 21.1876C163.384 21.1876 163.977 21.6821 163.977 22.4501C163.979 22.6721 163.904 22.8878 163.765 23.0602C163.625 23.2326 163.431 23.3509 163.214 23.3949C163.437 23.4314 163.643 23.5383 163.801 23.7H163.803ZM164.745 22.4375H165.552V23.6474H166.768V22.4459H167.575V25.5812H166.768V24.2829H165.56V25.5812H164.753L164.745 22.4375ZM168.236 24.0156C168.236 22.9446 168.865 22.3533 169.582 22.4081C169.768 22.3986 169.954 22.4393 170.119 22.5258C170.285 22.6124 170.424 22.7417 170.523 22.9004V22.4501H171.33V25.5917H170.502V25.1414C170.398 25.2956 170.258 25.4214 170.094 25.5074C169.929 25.5934 169.746 25.6368 169.561 25.6338C168.951 25.678 168.236 25.093 168.236 24.0156ZM169.806 25.0025C170.206 25.0025 170.523 24.6427 170.523 24.0156C170.523 23.3886 170.206 23.0288 169.806 23.0288H169.758C169.357 23.0288 169.043 23.4307 169.043 24.0156C169.043 24.6006 169.357 25.0025 169.758 25.0025H169.806ZM172.184 22.4459H173.022V23.6558H174.236V22.4459H175.044V25.5812H174.236V24.2829H173.022V25.5812H172.184V22.4459ZM178.95 22.4459V25.5812H178.143V23.3402L176.977 25.5812H175.91V22.4459H176.715V24.6848L177.832 22.4459H178.95ZM179.623 24.0156C179.623 23.073 180.206 22.3533 181.091 22.4081C181.975 22.4628 182.527 23.0772 182.527 24.0156V24.3186H180.43C180.442 24.5055 180.521 24.6817 180.653 24.8139C180.785 24.9462 180.961 25.0252 181.147 25.0362H181.195C181.318 25.0463 181.44 25.011 181.538 24.9369C181.636 24.8628 181.704 24.7551 181.728 24.6343H182.535C182.461 24.9548 182.276 25.2384 182.013 25.4346C181.75 25.6308 181.426 25.7268 181.099 25.7053C180.782 25.6934 180.477 25.5838 180.225 25.3913C179.973 25.1989 179.786 24.933 179.69 24.6301C179.624 24.4267 179.601 24.2116 179.623 23.9988V24.0156ZM181.72 23.6558C181.717 23.576 181.698 23.4974 181.665 23.4248C181.632 23.3521 181.585 23.2868 181.526 23.2325C181.468 23.1783 181.399 23.1363 181.324 23.1089C181.25 23.0815 181.17 23.0693 181.091 23.073H181.047C180.97 23.0658 180.894 23.0738 180.821 23.0966C180.748 23.1195 180.68 23.1566 180.621 23.206C180.563 23.2553 180.515 23.3159 180.48 23.3841C180.445 23.4522 180.424 23.5268 180.417 23.6032C180.416 23.6207 180.416 23.6383 180.417 23.6558H181.72Z" fill="black"/>
<path d="M18.5955 8.2605C17.9203 8.75743 17.2452 9.25706 16.57 9.74588C16.5179 9.76852 16.4614 9.77883 16.4047 9.77602C16.348 9.77321 16.2927 9.75735 16.2432 9.72968C14.6565 8.72367 12.9308 8.22944 11.0511 8.33882C7.81027 8.52922 5.33103 10.0538 3.73221 12.8598C0.741187 18.1059 3.85914 24.7429 9.79663 25.8704C12.1057 26.3093 14.4945 25.8132 16.4378 24.4911C18.3811 23.169 19.7197 21.1292 20.1592 18.8202C20.2632 18.2895 20.2713 17.74 20.3321 17.1998C20.3456 17.0837 20.3658 16.9297 20.4441 16.8649C21.1747 16.3059 21.9187 15.763 22.7316 15.1635C23.0247 16.9838 22.9558 18.7014 22.4494 20.3947C21.6496 23.1922 19.7988 25.5719 17.2843 27.0358C12.153 30.1092 5.44986 28.6332 2.02537 23.6937C-1.38021 18.7838 -0.391757 11.9794 4.24399 8.2578C8.87974 4.53623 15.1116 5.25192 18.5955 8.2605Z" fill="black"/>
<path d="M56.8535 10.3038C55.9988 10.9331 55.1953 11.4975 54.4229 12.1052C54.0534 12.4076 53.5846 12.5621 53.1077 12.5386C51.5507 12.5103 49.9924 12.5386 48.4341 12.5224C48.1046 12.5224 47.9844 12.6169 47.9925 12.9518C48.0101 13.7229 48.0115 14.4966 47.9925 15.2677C47.9844 15.612 48.1168 15.6903 48.4382 15.6863C49.5779 15.6674 50.7189 15.6687 51.8586 15.6863C52.8038 15.6971 53.7248 15.8281 54.5931 16.2264C56.0487 16.884 56.7874 18.1898 56.7428 19.8724C56.6753 22.407 54.9671 23.6061 52.9362 23.9153C52.0322 24.0258 51.1217 24.0741 50.2112 24.0598C48.6286 24.0841 47.0446 24.0598 45.4606 24.0733C45.1838 24.0733 45.0839 24.0004 45.0852 23.7128C45.0916 19.3565 45.0916 15.0008 45.0852 10.6454C45.0852 10.4051 45.1298 10.2808 45.4174 10.2822C49.1552 10.2903 52.8912 10.2903 56.6253 10.2822C56.6793 10.2876 56.7253 10.2943 56.8535 10.3038ZM49.9951 17.8509V17.9157C49.4374 17.9157 48.8811 17.9238 48.3234 17.9157C48.0925 17.9157 48.0047 18.0008 48.0061 18.2236C48.0061 19.3255 48.0061 20.4269 48.0061 21.5279C48.0061 21.7575 48.1114 21.8358 48.3328 21.8317C49.5481 21.8047 50.7635 21.8236 51.9788 21.7494C52.8052 21.6994 53.5533 21.3996 53.8571 20.5178C54.246 19.3903 53.6816 18.333 52.4865 18.0872C51.6682 17.9238 50.8242 17.9238 49.9951 17.8509Z" fill="black"/>
<path d="M75.7084 24.0463H72.8241V10.3078C72.9591 10.2997 73.0861 10.2876 73.2089 10.2876C75.0468 10.2876 76.8832 10.2673 78.7197 10.2876C79.8662 10.3051 80.9843 10.5131 82.0024 11.087C83.4959 11.9296 84.2427 13.2246 84.3183 14.926C84.3844 16.3871 83.9982 17.6807 82.8896 18.6935C82.042 19.4718 80.9559 19.9401 79.8081 20.0222C78.613 20.1208 77.4072 20.1113 76.2054 20.1113C75.8111 20.1113 75.7111 20.2383 75.7206 20.6137C75.7435 21.6129 75.7287 22.6135 75.7273 23.6142C75.7328 23.7559 75.7152 23.8923 75.7084 24.0463ZM75.7327 15.2055C75.7327 15.9901 75.7246 16.7746 75.7422 17.5592C75.7422 17.6686 75.8772 17.8711 75.942 17.8698C77.0655 17.8698 78.2012 17.9251 79.3179 17.7887C80.7668 17.6105 81.4528 16.5842 81.4002 14.9409C81.361 13.6823 80.4698 12.7114 79.1491 12.6061C78.1188 12.5237 77.0777 12.5548 76.0433 12.5278C75.7733 12.5197 75.7381 12.675 75.7395 12.891C75.7327 13.6621 75.7327 14.4345 75.7327 15.2055Z" fill="black"/>
<path d="M59.5907 24.0246V10.3186H69.8844C69.2511 10.7885 68.6192 11.1882 68.0696 11.6811C67.7222 12.0088 67.3069 12.256 66.8532 12.4051C66.3995 12.5542 65.9186 12.6016 65.4445 12.544C64.6154 12.467 63.7728 12.544 62.9369 12.5224C62.6169 12.5156 62.4845 12.6007 62.4926 12.9464C62.5142 13.8205 62.5142 14.6942 62.4926 15.5674C62.4845 15.9117 62.6088 15.9914 62.9328 15.9887C64.7437 15.9752 66.5558 15.9887 68.3666 15.9887H68.846V18.2249H68.4099C66.5855 18.2249 64.7639 18.2343 62.9369 18.2168C62.5777 18.2168 62.4845 18.3316 62.4913 18.6719C62.5111 19.5838 62.5111 20.4957 62.4913 21.4077C62.4845 21.7452 62.602 21.8384 62.9301 21.8371C65.1218 21.8249 67.3134 21.8371 69.5036 21.8236C69.8628 21.8236 70.0006 21.914 69.9776 22.2881C69.9479 22.7796 69.9682 23.2752 69.9776 23.7735C69.9776 23.9612 69.9425 24.0814 69.7075 24.0814C66.3641 24.0706 63.0206 24.0647 59.6771 24.0638C59.6471 24.0537 59.6181 24.0406 59.5907 24.0246V24.0246Z" fill="black"/>
<path d="M42.4816 22.1578C41.5727 23.1132 40.3917 23.7657 39.099 24.0266C36.7075 24.5195 34.4538 24.2062 32.4931 22.6628C30.6323 21.1963 29.8491 19.2086 29.895 16.8671C29.9571 13.6438 32.0623 10.8472 35.7812 10.2342C37.9782 9.87229 40.0699 10.1977 41.878 11.6358C41.9564 11.698 42.0279 11.7709 42.1562 11.8803L41.2717 12.5406C40.9152 12.8106 40.5844 13.2225 40.1915 13.286C39.8309 13.344 39.4096 13.0159 39.0112 12.8741C36.4942 11.968 33.1156 13.1442 32.7132 16.6065C32.377 19.4841 34.3795 21.6635 37.1532 21.7594C38.2344 21.8035 39.3039 21.5211 40.2225 20.9492C40.4926 20.7858 40.6789 20.8047 40.922 20.9992C41.4176 21.3948 41.9361 21.7553 42.4816 22.1578Z" fill="black"/>
<path d="M7.11074 14.1845C7.26738 14.271 7.38081 14.3196 7.47938 14.3898C8.67039 15.1352 9.8668 15.8752 11.0443 16.6354C11.3468 16.8312 11.5466 16.8258 11.8383 16.6084C14.629 14.5325 17.4301 12.466 20.2415 10.409C20.3307 10.3441 20.4252 10.2847 20.5953 10.1686L21.8106 12.24C21.9362 12.4547 21.7593 12.5263 21.631 12.6222L16.9237 16.0912C15.202 17.3606 13.4749 18.6231 11.7613 19.9033C11.5304 20.0748 11.3765 20.0788 11.1348 19.9235C9.90056 19.1309 8.65419 18.3558 7.40511 17.5861C7.3099 17.5409 7.23057 17.4679 7.17755 17.3768C7.12454 17.2857 7.1003 17.1808 7.10804 17.0756C7.12019 16.1304 7.11074 15.1851 7.11074 14.1845Z" fill="black"/>
<g opacity="0.2">
<path fill-rule="evenodd" clip-rule="evenodd" d="M304.482 3.23421C304.629 3.23683 304.775 3.21029 304.911 3.15612C305.048 3.10194 305.173 3.02122 305.278 2.9186C305.383 2.81599 305.467 2.69353 305.525 2.5583C305.582 2.42307 305.612 2.27776 305.614 2.13078C305.613 1.98368 305.583 1.8382 305.525 1.7028C305.468 1.5674 305.384 1.44479 305.279 1.3421C305.173 1.23941 305.049 1.1587 304.912 1.10466C304.775 1.05062 304.629 1.02434 304.482 1.02735C304.335 1.02472 304.189 1.05127 304.052 1.10544C303.916 1.15961 303.791 1.24034 303.686 1.34295C303.581 1.44557 303.497 1.56803 303.439 1.70326C303.381 1.83848 303.351 1.98379 303.35 2.13078C303.351 2.27776 303.381 2.42307 303.439 2.5583C303.497 2.69353 303.581 2.81599 303.686 2.9186C303.791 3.02122 303.916 3.10194 304.052 3.15612C304.189 3.21029 304.335 3.23683 304.482 3.23421" fill="black"/>
</g>
<g opacity="0.7">
<path fill-rule="evenodd" clip-rule="evenodd" d="M299.494 8.15185C299.641 8.15409 299.787 8.12719 299.923 8.07271C300.06 8.01823 300.185 7.93723 300.29 7.83439C300.395 7.73155 300.479 7.60891 300.536 7.47352C300.594 7.33814 300.624 7.1927 300.625 7.04559C300.625 6.89849 300.595 6.75301 300.537 6.61761C300.48 6.48221 300.396 6.35959 300.29 6.2569C300.185 6.15422 300.06 6.0735 299.924 6.01947C299.787 5.96543 299.641 5.93915 299.494 5.94216C299.347 5.93953 299.201 5.96608 299.064 6.02025C298.927 6.07442 298.803 6.15515 298.697 6.25776C298.592 6.36038 298.508 6.48284 298.451 6.61807C298.393 6.75329 298.363 6.8986 298.362 7.04559C298.363 7.1927 298.393 7.33814 298.451 7.47352C298.508 7.60891 298.592 7.73155 298.697 7.83439C298.803 7.93723 298.927 8.01823 299.064 8.07271C299.2 8.12719 299.346 8.15409 299.494 8.15185" fill="black"/>
</g>
<g opacity="0.4">
<path fill-rule="evenodd" clip-rule="evenodd" d="M305.528 5.69009C305.675 5.69233 305.821 5.66544 305.958 5.61095C306.095 5.55647 306.219 5.47547 306.324 5.37263C306.43 5.26979 306.513 5.14715 306.571 5.01176C306.628 4.87638 306.659 4.73094 306.66 4.58383C306.659 4.43684 306.628 4.29153 306.571 4.15631C306.513 4.02108 306.429 3.89862 306.324 3.796C306.219 3.69339 306.094 3.61266 305.958 3.55849C305.821 3.50432 305.675 3.47777 305.528 3.48039C305.381 3.47739 305.235 3.50367 305.098 3.55771C304.961 3.61175 304.837 3.69246 304.731 3.79515C304.626 3.89783 304.542 4.02045 304.485 4.15585C304.427 4.29125 304.397 4.43673 304.396 4.58383C304.397 4.73094 304.428 4.87638 304.485 5.01176C304.543 5.14715 304.627 5.26979 304.732 5.37263C304.837 5.47547 304.962 5.55647 305.098 5.61095C305.235 5.66544 305.381 5.69233 305.528 5.69009" fill="black"/>
</g>
<g opacity="0.8">
<path fill-rule="evenodd" clip-rule="evenodd" d="M298.435 5.69009C298.582 5.69233 298.728 5.66544 298.865 5.61095C299.002 5.55647 299.126 5.47547 299.231 5.37263C299.337 5.26979 299.421 5.14715 299.478 5.01176C299.536 4.87638 299.566 4.73094 299.567 4.58383C299.566 4.43673 299.536 4.29125 299.479 4.15585C299.421 4.02045 299.337 3.89783 299.232 3.79515C299.127 3.69246 299.002 3.61175 298.865 3.55771C298.729 3.50367 298.582 3.47739 298.435 3.48039C298.288 3.47777 298.142 3.50432 298.006 3.55849C297.869 3.61266 297.744 3.69339 297.639 3.796C297.534 3.89862 297.45 4.02108 297.392 4.15631C297.335 4.29153 297.305 4.43684 297.304 4.58383C297.305 4.73094 297.335 4.87638 297.392 5.01176C297.45 5.14715 297.534 5.26979 297.639 5.37263C297.744 5.47547 297.869 5.55647 298.005 5.61095C298.142 5.66544 298.288 5.69233 298.435 5.69009" fill="black"/>
</g>
<g opacity="0.5">
<path fill-rule="evenodd" clip-rule="evenodd" d="M304.482 8.15185C304.629 8.15409 304.775 8.12719 304.912 8.07271C305.048 8.01823 305.173 7.93723 305.278 7.83439C305.383 7.73155 305.467 7.60891 305.525 7.47352C305.582 7.33814 305.612 7.1927 305.614 7.04559C305.613 6.89849 305.583 6.75301 305.525 6.61761C305.468 6.48221 305.384 6.35959 305.279 6.2569C305.173 6.15422 305.049 6.0735 304.912 6.01947C304.775 5.96543 304.629 5.93915 304.482 5.94216C304.335 5.93953 304.189 5.96608 304.052 6.02025C303.916 6.07442 303.791 6.15515 303.686 6.25776C303.581 6.36038 303.497 6.48284 303.439 6.61807C303.381 6.75329 303.351 6.8986 303.35 7.04559C303.351 7.1927 303.381 7.33814 303.439 7.47352C303.497 7.60891 303.58 7.73155 303.686 7.83439C303.791 7.93723 303.915 8.01823 304.052 8.07271C304.189 8.12719 304.335 8.15409 304.482 8.15185" fill="black"/>
</g>
<g opacity="0.8">
<path fill-rule="evenodd" clip-rule="evenodd" d="M299.494 3.23421C299.641 3.23683 299.787 3.21029 299.923 3.15612C300.06 3.10194 300.184 3.02122 300.29 2.9186C300.395 2.81599 300.479 2.69353 300.536 2.5583C300.594 2.42307 300.624 2.27776 300.625 2.13078C300.625 1.98368 300.595 1.8382 300.537 1.7028C300.48 1.5674 300.396 1.44479 300.29 1.3421C300.185 1.23941 300.06 1.1587 299.924 1.10466C299.787 1.05062 299.641 1.02434 299.494 1.02735C299.347 1.02472 299.201 1.05127 299.064 1.10544C298.927 1.15961 298.803 1.24034 298.697 1.34295C298.592 1.44557 298.508 1.56803 298.451 1.70326C298.393 1.83848 298.363 1.98379 298.362 2.13078C298.363 2.27776 298.393 2.42307 298.451 2.5583C298.508 2.69353 298.592 2.81599 298.697 2.9186C298.803 3.02122 298.927 3.10194 299.064 3.15612C299.201 3.21029 299.347 3.23683 299.494 3.23421" fill="black"/>
</g>
<g opacity="0.6">
<path fill-rule="evenodd" clip-rule="evenodd" d="M301.985 9.16994C302.133 9.17256 302.279 9.14593 302.416 9.09158C302.553 9.03723 302.677 8.95625 302.782 8.85334C302.888 8.75042 302.972 8.62763 303.029 8.49207C303.086 8.35652 303.116 8.2109 303.117 8.06368C303.116 7.91682 303.086 7.77165 303.028 7.63657C302.971 7.5015 302.887 7.37922 302.781 7.27683C302.676 7.17444 302.551 7.09399 302.415 7.04013C302.278 6.98626 302.132 6.96008 301.985 6.96308C301.839 6.96008 301.693 6.98626 301.556 7.04013C301.419 7.09399 301.295 7.17444 301.19 7.27683C301.084 7.37922 301 7.5015 300.943 7.63657C300.885 7.77165 300.855 7.91682 300.854 8.06368C300.855 8.21079 300.885 8.35623 300.943 8.49162C301 8.627 301.084 8.74965 301.189 8.85248C301.294 8.95532 301.419 9.03632 301.556 9.0908C301.692 9.14529 301.838 9.17218 301.985 9.16994" fill="black"/>
</g>
<path fill-rule="evenodd" clip-rule="evenodd" d="M301.985 2.20992C302.133 2.21217 302.279 2.18527 302.415 2.13078C302.552 2.0763 302.676 1.9953 302.782 1.89247C302.887 1.78963 302.971 1.66698 303.028 1.5316C303.086 1.39622 303.116 1.25077 303.117 1.10366C303.116 0.956565 303.086 0.811083 303.029 0.675683C302.971 0.540282 302.888 0.417668 302.782 0.31498C302.677 0.212291 302.552 0.13158 302.416 0.0775434C302.279 0.0235072 302.132 -0.00277245 301.985 0.000231288C301.839 -0.0020129 301.693 0.024789 301.556 0.0790976C301.42 0.133406 301.295 0.214151 301.19 0.316689C301.085 0.419228 301.001 0.541538 300.943 0.676594C300.886 0.811649 300.855 0.956785 300.854 1.10366C300.86 1.39938 300.983 1.68074 301.194 1.8875C301.406 2.09426 301.69 2.21 301.985 2.20992" fill="black"/>
<path fill-rule="evenodd" clip-rule="evenodd" d="M238.058 12.8339C238.104 12.8301 238.15 12.8377 238.193 12.856C238.235 12.8742 238.272 12.9026 238.301 12.9386C238.328 12.9752 238.346 13.0171 238.356 13.0615C238.365 13.1059 238.365 13.1518 238.355 13.196L237.455 16.8062C237.424 16.9086 237.363 16.9993 237.28 17.0665C237.2 17.1322 237.1 17.17 236.997 17.174H231.59L233.398 9.96213H239.198L238.844 11.4022H234.6L234.21 12.8509L238.058 12.8339ZM233.474 15.7169H236.182L236.536 14.2768H233.831L233.474 15.7169Z" fill="black"/>
<path fill-rule="evenodd" clip-rule="evenodd" d="M241.954 9.94821H248.138L246.333 17.1601H240.151L241.954 9.94821ZM243.131 11.394L242.047 15.7172H245.142L246.223 11.394H243.131Z" fill="black"/>
<path fill-rule="evenodd" clip-rule="evenodd" d="M253.814 12.2203L250.413 17.1518H248.71L253.684 9.93988H255.073L256.437 17.1461L254.734 17.1518L253.814 12.2203Z" fill="black"/>
<path fill-rule="evenodd" clip-rule="evenodd" d="M261.47 12.8197H265.714L264.631 17.1428H258.831L260.641 9.93376H262.186L261.47 12.8197ZM263.451 15.6942L263.807 14.2598H261.1L260.74 15.6971L263.451 15.6942Z" fill="black"/>
<path fill-rule="evenodd" clip-rule="evenodd" d="M275.507 15.6858L276.958 9.91401H278.503L276.698 17.1231L267.421 17.1316L269.231 9.91967H270.776L269.325 15.6915L271.636 15.683L273.088 9.90836H274.633L273.181 15.6802L275.507 15.6858Z" fill="black"/>
<path fill-rule="evenodd" clip-rule="evenodd" d="M284.45 14.243H281.742L281.015 17.1289H279.479L281.289 9.91985H287.087L285.279 17.1289H283.723L284.45 14.243ZM285.174 11.3543H282.464L282.113 12.7944H284.818L285.174 11.3543Z" fill="black"/>
<path fill-rule="evenodd" clip-rule="evenodd" d="M296.039 9.89981L294.231 17.1117H292.686L293.41 14.223H293.06L290.377 17.1117H288.476L291.158 14.2258H289.56L290.284 11.3399H289.514L289.874 9.90547L296.039 9.89981ZM291.823 11.3484L291.455 12.7942H293.767L294.12 11.3569L291.823 11.3484Z" fill="black"/>
<path fill-rule="evenodd" clip-rule="evenodd" d="M238.058 12.8339C238.104 12.8301 238.15 12.8377 238.193 12.856C238.235 12.8742 238.272 12.9026 238.301 12.9386C238.328 12.9752 238.346 13.0171 238.356 13.0615C238.365 13.1059 238.365 13.1518 238.355 13.196L237.455 16.8062C237.424 16.9086 237.363 16.9993 237.28 17.0665C237.2 17.1322 237.1 17.17 236.997 17.174H231.59L233.398 9.96213H239.198L238.844 11.4022H234.6L234.21 12.8509L238.058 12.8339ZM233.474 15.7169H236.182L236.536 14.2768H233.831L233.474 15.7169Z" fill="black"/>
<path fill-rule="evenodd" clip-rule="evenodd" d="M241.954 9.94821H248.138L246.333 17.1601H240.151L241.954 9.94821ZM243.131 11.394L242.047 15.7172H245.142L246.223 11.394H243.131Z" fill="black"/>
<path fill-rule="evenodd" clip-rule="evenodd" d="M253.814 12.2203L250.413 17.1518H248.71L253.684 9.93988H255.073L256.437 17.1461L254.734 17.1518L253.814 12.2203Z" fill="black"/>
<path fill-rule="evenodd" clip-rule="evenodd" d="M261.47 12.8197H265.714L264.631 17.1428H258.831L260.641 9.93376H262.186L261.47 12.8197ZM263.451 15.6942L263.807 14.2598H261.1L260.74 15.6971L263.451 15.6942Z" fill="black"/>
<path fill-rule="evenodd" clip-rule="evenodd" d="M275.507 15.6858L276.958 9.91401H278.503L276.698 17.1231L267.421 17.1316L269.231 9.91967H270.776L269.325 15.6915L271.636 15.683L273.088 9.90836H274.633L273.181 15.6802L275.507 15.6858Z" fill="black"/>
<path fill-rule="evenodd" clip-rule="evenodd" d="M284.45 14.243H281.742L281.015 17.1289H279.479L281.289 9.91985H287.087L285.279 17.1289H283.723L284.45 14.243ZM285.174 11.3543H282.464L282.113 12.7944H284.818L285.174 11.3543Z" fill="black"/>
<path fill-rule="evenodd" clip-rule="evenodd" d="M296.039 9.89981L294.231 17.1117H292.686L293.41 14.223H293.06L290.377 17.1117H288.476L291.158 14.2258H289.56L290.284 11.3399H289.514L289.874 9.90547L296.039 9.89981ZM291.823 11.3484L291.455 12.7942H293.767L294.12 11.3569L291.823 11.3484Z" fill="black"/>
<path fill-rule="evenodd" clip-rule="evenodd" d="M233.837 26.4769L235.288 20.7051L232.974 20.7136L231.522 26.4854H229.978L231.429 20.7136L230.659 20.7221L231.019 19.2848L237.201 19.282L235.393 26.4939L233.837 26.4769Z" fill="black"/>
<path fill-rule="evenodd" clip-rule="evenodd" d="M244.31 19.2595L243.954 20.694L240.864 20.6997L240.678 21.4211H243.773L243.414 22.8556L240.324 22.8613L239.781 25.0228H242.876L242.52 26.4573L237.879 26.463L239.69 19.2511L244.31 19.2595Z" fill="black"/>
<path fill-rule="evenodd" clip-rule="evenodd" d="M248.02 23.5909L247.295 26.4739H245.751L247.202 20.6993H246.432L246.792 19.262H252.974L251.89 23.5852L248.02 23.5909ZM248.747 20.7021L248.39 22.1394H250.702L251.061 20.7021H248.747Z" fill="black"/>
<path fill-rule="evenodd" clip-rule="evenodd" d="M260.087 19.2453L259.728 20.6826L256.638 20.6854L256.454 21.4097H259.547L259.19 22.8442L256.101 22.8499L255.557 25.0114H258.65L258.293 26.4459L253.653 26.4516L255.464 19.2397L260.087 19.2453Z" fill="black"/>
<path fill-rule="evenodd" clip-rule="evenodd" d="M263.304 22.4878L262.305 26.4629H260.76L262.565 19.251L264.498 19.2482L265.179 24.2533L268.368 19.251L270.298 19.2482L268.49 26.4573H266.945L267.941 22.4849L265.4 26.4573H263.85L263.304 22.4878Z" fill="black"/>
<path fill-rule="evenodd" clip-rule="evenodd" d="M277.408 19.2336L277.051 20.6709L273.962 20.6738L273.775 21.4009L276.87 21.3952L276.511 22.8325L273.421 22.8354L272.878 24.9998L275.973 24.9941L275.617 26.4342L270.977 26.4399L272.785 19.228L277.408 19.2336Z" fill="black"/>
<path fill-rule="evenodd" clip-rule="evenodd" d="M284.136 19.2284H285.68L283.875 26.4404H282.328L283.052 23.5516L280.347 23.5488L279.62 26.4347H278.072L279.88 19.2284L281.425 19.2228L280.701 22.1115L283.408 22.1143L284.136 19.2284Z" fill="black"/>
<path fill-rule="evenodd" clip-rule="evenodd" d="M291.339 23.5486H288.629L287.902 26.4316H286.357L288.162 19.2197H293.965L292.157 26.4316H290.612L291.339 23.5486ZM292.05 20.6712H289.339L288.985 22.1113H291.69L292.05 20.6712Z" fill="black"/>
<path fill-rule="evenodd" clip-rule="evenodd" d="M233.837 26.4769L235.288 20.7051L232.974 20.7136L231.522 26.4854H229.978L231.429 20.7136L230.659 20.7221L231.019 19.2848L237.201 19.282L235.393 26.4939L233.837 26.4769Z" fill="black"/>
<path fill-rule="evenodd" clip-rule="evenodd" d="M244.31 19.2595L243.954 20.694L240.864 20.6997L240.678 21.4211H243.773L243.414 22.8556L240.324 22.8613L239.781 25.0228H242.876L242.52 26.4573L237.879 26.463L239.69 19.2511L244.31 19.2595Z" fill="black"/>
<path fill-rule="evenodd" clip-rule="evenodd" d="M248.02 23.5909L247.295 26.4739H245.751L247.202 20.6993H246.432L246.792 19.262H252.974L251.89 23.5852L248.02 23.5909ZM248.747 20.7021L248.39 22.1394H250.702L251.061 20.7021H248.747Z" fill="black"/>
<path fill-rule="evenodd" clip-rule="evenodd" d="M260.087 19.2453L259.728 20.6826L256.638 20.6854L256.454 21.4097H259.547L259.19 22.8442L256.101 22.8499L255.557 25.0114H258.65L258.293 26.4459L253.653 26.4516L255.464 19.2397L260.087 19.2453Z" fill="black"/>
<path fill-rule="evenodd" clip-rule="evenodd" d="M263.304 22.4878L262.305 26.4629H260.76L262.565 19.251L264.498 19.2482L265.179 24.2533L268.368 19.251L270.298 19.2482L268.49 26.4573H266.945L267.941 22.4849L265.4 26.4573H263.85L263.304 22.4878Z" fill="black"/>
<path fill-rule="evenodd" clip-rule="evenodd" d="M277.408 19.2336L277.051 20.6709L273.962 20.6738L273.775 21.4009L276.87 21.3952L276.511 22.8325L273.421 22.8354L272.878 24.9998L275.973 24.9941L275.617 26.4342L270.977 26.4399L272.785 19.228L277.408 19.2336Z" fill="black"/>
<path fill-rule="evenodd" clip-rule="evenodd" d="M284.136 19.2284H285.68L283.875 26.4404H282.328L283.052 23.5516L280.347 23.5488L279.62 26.4347H278.072L279.88 19.2284L281.425 19.2228L280.701 22.1115L283.408 22.1143L284.136 19.2284Z" fill="black"/>
<path fill-rule="evenodd" clip-rule="evenodd" d="M291.339 23.5486H288.629L287.902 26.4316H286.357L288.162 19.2197H293.965L292.157 26.4316H290.612L291.339 23.5486ZM292.05 20.6712H289.339L288.985 22.1113H291.69L292.05 20.6712Z" fill="black"/>
<path d="M106.087 18.9757H107.392L108.568 17.6223L109.745 18.9757H111.099L109.399 17.0925L110.98 15.3954H109.675L108.618 16.6056L107.56 15.3954H106.205L107.767 17.1426L106.087 18.9757Z" fill="black"/>
<path d="M211.162 18.9757H212.467L213.643 17.6223L214.82 18.9757H216.174L214.474 17.0925L216.056 15.3954H214.751L213.693 16.6056L212.635 15.3954H211.281L212.843 17.1426L211.162 18.9757Z" fill="black"/>
</svg>
