<svg width="247" height="77" viewBox="0 0 247 77" fill="none" xmlns="http://www.w3.org/2000/svg">
<path d="M208.224 20.8136C217.755 26.6796 227.934 41.366 219.744 55.9592C213.36 66.5223 204.634 68.2048 193.263 66.2194" stroke="#FFBF50" stroke-width="3" stroke-linecap="round"/>
<path d="M193.292 66.5098C193.9 65.7754 194.559 65.2437 195.189 64.6487C195.595 64.2655 196.006 63.8821 196.404 63.4365C196.875 62.9088 197.244 62.3298 197.667 61.7151" stroke="#FFBF50" stroke-width="3" stroke-linecap="round"/>
<path d="M193.22 66.7175C196.08 68.4699 197.624 71.5006 197.814 71.6309" stroke="#FFBF50" stroke-width="3" stroke-linecap="round"/>
<path d="M18.8139 7.70193C15.1156 6.07144 11.3713 4.70514 7.98528 2.43506" stroke="#FFBF50" stroke-width="3" stroke-linecap="round"/>
<path d="M19.4188 15.5955C13.3858 14.9188 7.71908 15.7204 2 16.855" stroke="#FFBF50" stroke-width="3" stroke-linecap="round"/>
<path d="M22.6497 23.0002C19.9122 24.3709 17.4263 26.7043 14.7969 28.3232" stroke="#FFBF50" stroke-width="3" stroke-linecap="round"/>
<path d="M230 7.70193C233.698 6.07144 237.443 4.70514 240.829 2.43506" stroke="#FFBF50" stroke-width="3" stroke-linecap="round"/>
<path d="M228 15.6116C234.068 15.7904 239.566 17.3812 245.068 19.3091" stroke="#FFBF50" stroke-width="3" stroke-linecap="round"/>
<path d="M223.812 22.0002C226.549 23.3709 229.035 25.7043 231.664 27.3232" stroke="#FFBF50" stroke-width="3" stroke-linecap="round"/>
</svg>
