<svg width="232" height="47" viewBox="0 0 232 47" fill="none" xmlns="http://www.w3.org/2000/svg">
<g clip-path="url(#clip0_389_867)">
<path d="M99.284 14.0122L103.919 10.5666H88.4099V31.2582H103.919V27.8138H92.835V22.5157H102.289V19.0714H92.835V14.0122H99.284Z" fill="white"/>
<path d="M76.7033 18.6326H71.3171V14.0123H79.9143L84.5496 10.5679H66.8906V31.2595H76.1264C81.3104 31.2595 84.2832 28.89 84.2832 24.7597C84.2886 20.8077 81.5942 18.6326 76.7033 18.6326ZM75.9323 27.8139H71.3171V22.0783H75.9323C78.7431 22.0783 80.0495 23.0383 80.0495 24.9461C80.0495 26.8957 78.6642 27.8139 75.9323 27.8139Z" fill="white"/>
<path d="M116.484 10.5679H108.04V31.2595H112.465V25.3984H116.481C121.87 25.3984 125.217 22.54 125.217 17.9724C125.217 13.4047 121.876 10.5679 116.484 10.5679ZM116.39 21.9527H112.465V14.0123H116.389C119.224 14.0123 120.786 15.4219 120.786 17.9818C120.786 20.5418 119.225 21.9527 116.389 21.9527H116.39Z" fill="white"/>
<path d="M59.2932 26.7783C58.1204 27.4199 56.806 27.7525 55.4718 27.745C51.4817 27.745 48.5851 24.8718 48.5851 20.9131C48.5851 16.9543 51.4817 14.0811 55.4718 14.0811C56.9153 14.0593 58.3278 14.5046 59.502 15.3517L62.6757 12.9915L62.4668 12.8066C60.613 11.1634 58.1368 10.2952 55.3045 10.2952C52.2259 10.2952 49.4445 11.3403 47.4554 13.2373C45.4664 15.1343 44.3501 17.8279 44.3501 20.7983C44.3501 23.7687 45.449 26.5029 47.4434 28.4701C49.4378 30.4373 52.2259 31.5296 55.2764 31.5296C58.4674 31.5296 61.2528 30.4076 63.1415 28.3661L60.277 26.2369L59.2932 26.7783Z" fill="white"/>
<path d="M34.0905 20.9131C34.0927 19.88 34.0031 18.8489 33.8228 17.8319L30.1486 20.5607C30.1486 20.6768 30.1486 20.7956 30.1486 20.9131C30.1506 23.8693 29.1712 26.741 27.3665 29.0702C25.5618 31.3994 23.0358 33.0519 20.1915 33.7642C17.3472 34.4764 14.3484 34.2073 11.6734 32.9998C8.99832 31.7923 6.8012 29.716 5.43244 27.1021C4.06367 24.4881 3.60211 21.4871 4.12137 18.5776C4.64064 15.6682 6.11081 13.018 8.2974 11.0497C10.484 9.08136 13.261 7.90837 16.1856 7.71779C19.1101 7.52721 22.0137 8.33002 24.4332 9.99817L27.7487 7.53407C24.7404 5.08529 20.9963 3.74072 17.1308 3.721C13.2652 3.70128 9.50787 5.00759 6.47523 7.42557C3.44259 9.84354 1.31482 13.2295 0.441104 17.028C-0.432616 20.8264 -0.000395333 24.8115 1.66684 28.3295C3.33407 31.8475 6.13729 34.6894 9.61648 36.3887C13.0957 38.0881 17.0442 38.544 20.8141 37.6816C24.5839 36.8193 27.9513 34.6899 30.3635 31.6429C32.7756 28.596 34.0894 24.8124 34.0892 20.9131H34.0905Z" fill="white"/>
<path d="M30.5329 10.4018C31.3439 11.4564 32.0294 12.6034 32.5755 13.8191L17.0488 25.3646L10.561 21.2613V16.3251L17.0488 20.4283L30.5329 10.4018Z" fill="white"/>
<path fill-rule="evenodd" clip-rule="evenodd" d="M135.495 8.89368V47L232 38.1063L223.294 19.5318L232 0L135.495 8.89368ZM148.683 18.3044H156.872L156.879 31.2595H159.623V15.758H145.939V31.2595H148.683V18.3044ZM163.103 20.2312H165.512V22.5265C165.906 21.2911 167.065 20.0111 169.383 20.0111C172.159 20.0111 174.105 21.6435 174.105 25.5037C174.105 29.8486 172.159 31.5025 169.163 31.5025C167.414 31.5025 166.219 30.6209 165.665 29.5839V35.5247H163.103V20.2312ZM165.661 26.1193C165.661 28.1055 166.798 29.2248 168.591 29.2248C170.647 29.2248 171.543 28.2094 171.543 25.6076C171.543 23.1773 170.384 22.2983 168.635 22.2983C166.627 22.2983 165.705 23.423 165.661 25.2768V26.1193ZM180.619 20.0097C178.738 20.0097 177.426 20.4512 176.705 21.0021L176.695 24.2304C177.44 23.0611 178.601 22.2672 180.609 22.2672C182.075 22.2672 182.818 22.7519 182.818 24.3182V24.7948H180.347C177.658 24.7948 175.843 25.5009 175.843 28.015C175.843 30.1766 177.154 31.4336 179.363 31.4336C181.118 31.4336 182.452 30.5533 182.977 29.2733V31.2595H185.386V23.9806C185.386 21.1128 183.811 20.0097 180.619 20.0097ZM182.827 26.4785V27.3777C182.719 28.127 181.909 29.1194 180.182 29.1248C179.044 29.1248 178.433 28.5956 178.433 27.7571C178.433 26.7647 179.154 26.4785 180.663 26.4785H182.827ZM188.359 20.2312H190.902V27.7085L196.151 20.2312H198.573V31.2595H196.03V23.6985L190.892 31.1097L190.783 31.2649H188.355L188.359 20.2312ZM197.303 14.7386C197.303 17.2311 195.467 18.1573 193.586 18.1573C191.42 18.1573 189.649 17.2311 189.649 14.7386H192.015C192.015 15.6649 192.474 16.2387 193.546 16.2387C194.42 16.2387 194.945 15.8418 194.945 14.7386H197.303ZM208.211 28.524L211.363 23.8483V31.2663H213.921V20.2379H211.34L207.885 25.3983L204.329 20.2312H201.679V31.2595H204.236V23.8254L207.407 28.524H208.211Z" fill="white"/>
</g>
<defs>
<clipPath id="clip0_389_867">
<rect width="232" height="47" fill="white"/>
</clipPath>
</defs>
</svg>
