<svg width="194" height="198" viewBox="0 0 194 198" fill="none" xmlns="http://www.w3.org/2000/svg">
<path d="M64.8024 137.561C61.4023 137.165 56.2726 136.331 50.3112 134.373C28.1905 127.105 15.5056 111.189 11.042 105.47C8.56305 102.294 5.12638 97.4461 1.81439 90.9566C2.38983 91.1241 3.12787 91.2815 3.99418 91.3284C5.18548 91.393 6.18313 91.225 6.88936 91.0467C5.71853 89.9847 4.32762 88.51 3.04145 86.5539C2.21611 85.2984 1.60114 84.0988 1.14014 83.0398C2.23838 83.0635 3.38118 83.1127 4.56495 83.1933C5.97292 83.2892 7.31856 83.4215 8.59701 83.5796C7.81568 82.9748 6.92529 82.1927 6.02718 81.2015C5.18441 80.2712 4.52614 79.3679 4.01735 78.574C10.077 70.9864 15.8315 61.0927 19.0791 55.4347L19.0795 55.4342C22.2332 49.9042 28.2483 39.3572 32.8211 27.0591C32.8211 27.0591 39.5001 10.9739 43.8864 4.98367C44.8523 3.66463 46.2737 2.72939 46.2737 2.72939C46.8012 2.3822 47.2807 2.07309 47.9846 1.91315C49.3381 1.60547 50.4862 2.09212 51.085 2.34163C52.3411 2.86526 53.0743 3.66713 53.9765 4.6758C55.2778 6.13092 56.013 7.45607 56.165 7.73413C58.3428 11.7162 61.734 18.0944 64.6667 26.2677C64.7375 26.4646 64.814 26.6802 64.814 26.6802C65.9198 29.7925 66.7498 32.4118 67.3091 34.2521C72.8471 32.7922 77.0518 30.7023 79.8444 29.068C83.8802 26.706 90.8229 22.5267 95.0905 14.3306C95.9963 12.5908 96.575 11.0671 96.9289 10.0223C97.6767 11.3821 98.5986 13.4819 98.9263 16.1749C99.5577 21.3622 97.5735 25.3777 96.7095 26.9098C98.9885 26.1196 102.159 24.7327 105.445 22.2589C108.222 20.1681 110.202 17.9635 111.541 16.2214C111.741 17.4437 111.887 19.1747 111.617 21.2141C111.315 23.4969 110.607 25.2901 110.031 26.4698C111.711 26.0596 114.28 25.1989 116.884 23.2745C118.437 22.1271 119.585 20.91 120.403 19.8918C120.653 20.7072 120.976 22.1596 120.702 23.9301C120.289 26.6052 118.775 28.3209 118.166 28.9435C119.009 29.1409 119.885 29.37 120.789 29.636C122.247 30.0649 123.598 30.5366 124.836 31.0229C126.91 26.3314 128.465 22.4856 129.483 19.8918C129.483 19.8918 132.986 10.9721 137.542 4.41246C138.181 3.49211 139.434 1.81854 141.54 1.26027C141.819 1.18613 142.406 1.05418 143.042 1.08075C146.249 1.21449 148.313 5.27609 148.509 5.67281C150.101 8.43817 152.519 12.7286 155.305 18.0682C155.801 19.0176 157.101 21.8279 159.507 26.8078C159.508 26.8078 159.508 26.8089 159.509 26.8111C161.989 31.9876 164.085 36.1765 164.988 37.9716C164.988 37.9716 165.215 38.4218 165.432 38.8508C168.125 44.1771 174.712 54.6276 179.586 62.2055C182.922 66.1991 186.259 70.1924 189.595 74.186C189.318 74.999 188.949 75.9079 188.452 76.8683C187.698 78.3261 186.86 79.4986 186.11 80.4012C188.407 79.9255 190.703 79.4496 193 78.9739C191.255 82.0136 189.511 85.0534 187.767 88.0932C189.388 87.7732 191.01 87.4534 192.631 87.1336C191.176 90.6015 189.35 94.2994 187.046 98.0968C179.173 111.071 169.186 119.487 161.648 124.629C159.561 125.791 157.475 126.955 155.388 128.118C150.463 130.472 145.537 132.826 140.611 135.18C115.341 135.973 90.0719 136.767 64.8024 137.561Z" fill="#C4C3D6"/>
<path d="M53.9935 63.0557C62.3207 56.6061 74.304 58.1228 80.7588 66.4431C87.2139 74.7636 85.6959 86.7369 77.3688 93.1866C69.0415 99.6362 57.0583 98.1197 50.6034 89.7992C44.1485 81.4787 45.6662 69.5054 53.9935 63.0557Z" fill="#FFDF68"/>
<path d="M72.5371 60.3025C73.9867 61.574 77.9282 65.3723 79.077 71.563C80.3773 78.571 77.6176 86.0512 71.87 90.57C64.8871 96.0598 56.7655 94.6064 55.5229 94.3625C56.5093 94.9809 57.9782 95.7758 59.873 96.3595C67.7131 98.775 74.4916 95.0021 75.0329 94.6896C81.1824 91.1378 83.1798 85.3292 83.6624 83.8511C84.0562 82.644 85.0317 79.5383 84.4735 75.5344C84.1857 73.4703 83.5817 71.8221 83.0788 70.7021C82.5661 69.2712 81.3987 66.6116 78.8429 64.1521C76.455 61.8544 73.9538 60.7888 72.5371 60.3025Z" fill="#F3B839"/>
<path d="M118.965 62.2935C127.292 55.8438 139.276 57.3605 145.731 65.6808C152.185 74.0013 150.668 85.9747 142.34 92.4243C134.013 98.8739 122.03 97.3572 115.575 89.0368C109.12 80.7165 110.638 68.7431 118.965 62.2935Z" fill="#FFDF68"/>
<path d="M137.509 59.5401C138.958 60.8117 142.9 64.61 144.049 70.8006C145.349 77.8085 142.589 85.2887 136.842 89.8075C129.859 95.2973 121.737 93.844 120.495 93.6C121.481 94.2185 122.95 95.0133 124.845 95.5971C132.685 98.0126 139.463 94.2396 140.005 93.9271C146.154 90.3753 148.151 84.5667 148.634 83.0888C149.028 81.8816 150.004 78.7759 149.445 74.7719C149.158 72.7079 148.554 71.0596 148.051 69.9397C147.538 68.509 146.37 65.8492 143.815 63.3897C141.427 61.0921 138.926 60.0264 137.509 59.5401Z" fill="#F3B839"/>
<path d="M181.993 105.444C177.602 107.247 158.977 119.415 137.055 110.317C121.272 103.766 112.742 92.2533 109.555 87.4134C109.108 86.5383 108.118 84.9124 106.213 83.6805C105.232 83.0462 104.291 82.6991 103.568 82.5014C101.611 82.3384 99.3287 82.2767 96.7937 82.4472C94.4254 82.6063 92.3067 82.9362 90.4839 83.3216C89.989 83.5115 89.4387 83.7774 88.8776 84.154C86.9569 85.444 86.0712 87.2563 85.6932 88.2147C83.9122 91.2339 73.5891 108.069 51.9052 113.292C31.6606 118.167 14.561 107.333 11.1489 105.448C15.3899 110.97 22.9844 119.45 34.8339 126.544C46.7465 133.676 57.3698 135.953 64.7683 137.486C76.9266 140.007 86.0811 139.839 98.6628 139.529C109.15 139.271 123.535 138.294 140.611 135.179C151.154 131.278 164.506 124.446 176.24 112.127C178.358 109.902 180.269 107.662 181.993 105.444Z" fill="white"/>
<g opacity="0.300003">
<path d="M192.404 86.7701C190.801 87.0954 189.198 87.421 187.595 87.7465C189.323 84.6979 191.052 81.6494 192.781 78.6006C190.525 79.116 188.27 79.6314 186.015 80.1469C187.17 78.0429 188.325 75.939 189.48 73.8352C186.858 71.0447 184.125 67.8785 181.396 64.312C177.52 59.2481 174.397 54.3558 171.885 49.9014C172.283 54.7981 172.943 60.1385 173.985 65.8337C174.835 70.4726 175.836 74.7921 176.909 78.7686C174.974 81.5947 173.039 84.4205 171.104 87.2466C173.136 86.9374 175.169 86.6283 177.201 86.3192C175.402 88.3985 173.603 90.4779 171.804 92.5572C173.407 92.2317 175.01 91.9063 176.613 91.5808C168.247 102.504 159.575 109.556 153.58 113.772C147.426 118.1 128.975 130.729 102.506 132.251C94.3143 132.722 87.5558 132.003 83.1294 131.319C73.238 131.595 60.3299 130.881 45.8195 127.125C37.975 125.095 31.1002 122.548 25.2622 119.962C30.6527 124.158 35.7102 127.091 39.7503 129.118C49.0485 133.784 57.0072 135.683 60.5604 136.421C62.2343 136.768 63.6335 137.004 64.5955 137.154C68.5195 137.72 72.5598 138.196 76.7126 138.566C100.526 140.683 122.117 138.753 140.611 135.18C147.573 131.592 154.536 128.005 161.498 124.418C165.088 121.96 168.949 118.924 172.814 115.184C183.083 105.248 188.998 94.583 192.404 86.7701Z" fill="#455C7F"/>
</g>
<path d="M149.335 6.95663C148.261 5.18558 147.172 3.92416 146.366 3.09554C145.499 2.20481 144.951 1.80611 144.277 1.53236C144.169 1.48874 142.992 1.02525 141.616 1.2096C140.733 1.3279 139.09 1.80342 136.641 5.03551C134.879 7.35999 133.991 9.4073 133.36 10.8446C129.626 19.3481 129.846 17.9782 127.837 23.0411C126.941 25.2974 125.843 28.2286 124.705 31.7124L168.626 45.5928C167.635 43.857 166.094 41.0914 164.334 37.6238C160.606 30.2813 159.304 26.503 156.162 19.9051C154.704 16.8442 152.452 12.3418 149.335 6.95663Z" fill="#FFC2CD"/>
<path d="M41.1547 9.50797C41.8673 7.71735 43.0967 5.51224 45.2502 3.6728C46.2622 2.80846 47.0886 2.11914 48.2535 1.94717C51.7006 1.43808 54.5642 5.98363 54.711 6.22328C55.5904 7.7809 56.4585 9.38303 57.3113 11.0299C61.4907 19.0994 64.6408 26.9598 67.0281 34.3526C52.1025 39.4467 37.1768 44.5407 22.251 49.6348C23.2281 47.8291 24.7461 44.953 26.472 41.351C30.1273 33.7237 31.3756 29.8133 34.4483 22.9644C35.8737 19.7871 38.0806 15.1107 41.1547 9.50797Z" fill="#FFC2CD"/>
<path d="M47.6489 2.17011C48.3945 2.60021 49.3902 3.28254 50.3684 4.32441C51.4737 5.50146 52.129 6.68246 52.5094 7.51575C54.3532 12.4491 56.1392 17.9037 57.7211 23.8517C58.8867 28.2343 59.82 32.4282 60.5686 36.3923C62.7218 35.7123 64.875 35.0325 67.0282 34.3526C65.356 29.9239 63.446 24.8915 61.238 19.0538C61.2379 19.0538 55.7815 7.81894 55.7815 7.81894C55.544 7.13734 54.7416 5.11659 52.5895 3.64245C50.4922 2.20565 48.3787 2.15503 47.6489 2.17011Z" fill="white"/>
<path d="M179.4 62.0495C181.237 64.4322 183.193 66.8622 185.273 69.3245C186.637 70.9382 187.995 72.4952 189.342 73.9974C189.103 74.8351 188.761 75.8006 188.26 76.8311C187.537 78.3234 186.704 79.4972 185.982 80.3682C187.127 80.0707 188.3 79.7805 189.5 79.4994C190.618 79.2376 191.719 78.9937 192.8 78.7661C192.14 80.3639 191.279 82.1558 190.148 84.0431C189.272 85.5058 188.374 86.792 187.513 87.9078C188.106 87.8816 188.753 87.8231 189.443 87.7159C190.643 87.5296 191.69 87.24 192.566 86.9343C190.514 91.9554 185.577 101.808 178.122 110.029C178.122 110.029 178.107 110.045 178.085 110.07C178.085 110.07 178.041 110.118 177.998 110.165C163.809 125.744 144.585 133.684 144.585 133.684C142.41 134.582 139.116 135.844 134.953 137.044" stroke="black" stroke-width="2" stroke-miterlimit="10" stroke-linecap="round" stroke-linejoin="round"/>
<path d="M84.7971 77.7998C85.0089 88.3251 76.6412 97.0292 66.1072 97.2406C55.5733 97.4523 46.8622 89.0914 46.6504 78.566C46.4388 68.0408 54.8065 59.3368 65.3404 59.1252C75.8742 58.9137 84.5853 67.2746 84.7971 77.7998Z" stroke="black" stroke-width="2" stroke-miterlimit="10" stroke-linecap="round" stroke-linejoin="round"/>
<path d="M149.608 76.9869C149.819 87.5121 141.452 96.2162 130.918 96.4277C120.384 96.6394 111.673 88.2785 111.461 77.7531C111.249 67.2278 119.617 58.5239 130.151 58.3123C140.685 58.1008 149.396 66.4617 149.608 76.9869Z" stroke="black" stroke-width="2" stroke-miterlimit="10" stroke-linecap="round" stroke-linejoin="round"/>
<path d="M99.1361 99.5855C100.303 99.2132 102.604 98.2905 104.47 96.0691C105.122 95.2929 106.297 93.8573 106.67 91.6513C106.868 90.4777 106.771 89.4837 106.659 88.8345C106.541 88.3977 106.21 87.417 105.29 86.6056C103.808 85.2994 101.983 85.4762 101.67 85.5119C98.8709 85.7553 96.0722 85.9987 93.2735 86.2423C92.8278 86.3082 91.3131 86.5891 90.1302 87.9245C89.2905 88.8725 89.0264 89.8909 88.9339 90.3766C88.8999 91.0747 88.9396 92.182 89.431 93.3858C90.1859 95.2349 91.5591 96.2159 92.8082 97.0835C95.0532 98.6434 97.3717 99.3031 99.1361 99.5855Z" fill="#FF97C3"/>
<path d="M99.1361 99.5855C100.303 99.2132 102.604 98.2905 104.47 96.0691C105.122 95.2929 106.297 93.8573 106.67 91.6513C106.868 90.4777 106.771 89.4837 106.659 88.8345C106.541 88.3977 106.21 87.417 105.29 86.6056C103.808 85.2994 101.983 85.4762 101.67 85.5119C98.8709 85.7553 96.0722 85.9987 93.2735 86.2423C92.8278 86.3082 91.3131 86.5891 90.1302 87.9245C89.2905 88.8725 89.0264 89.8909 88.9339 90.3766C88.8999 91.0747 88.9396 92.182 89.431 93.3858C90.1859 95.2349 91.5591 96.2159 92.8082 97.0835C95.0532 98.6434 97.3717 99.3031 99.1361 99.5855Z" stroke="black" stroke-width="2" stroke-miterlimit="10" stroke-linecap="round" stroke-linejoin="round"/>
<path d="M90.5957 92.3014C92.8242 92.454 95.5268 92.4589 98.5642 92.0796C100.919 91.7855 103.006 91.3192 104.783 90.8128C104.707 91.5945 104.458 92.9961 103.524 94.4256C101.986 96.7775 99.6646 97.5618 98.9573 97.7713C97.9563 97.6979 95.4761 97.3771 93.1871 95.5102C91.8105 94.3877 91.0222 93.1293 90.5957 92.3014Z" fill="#E971A1"/>
<path d="M91.4895 89.8361C91.5894 90.7867 93.47 91.3685 95.6902 91.1355C97.9103 90.9025 99.6291 89.9432 99.5292 88.9925C99.4291 88.0417 97.5484 87.4599 95.3282 87.6929C93.1082 87.9257 91.3896 88.8854 91.4895 89.8361Z" fill="#FFDAEB"/>
<path d="M116.14 79.2799C116.443 84.7588 121.134 88.9543 126.618 88.6509C132.101 88.3477 136.3 83.6603 135.996 78.1817C135.693 72.703 131.002 68.5075 125.518 68.8109C120.035 69.1141 115.837 73.8013 116.14 79.2799Z" fill="black"/>
<path d="M116.14 79.2799C116.443 84.7588 121.134 88.9543 126.618 88.6509C132.101 88.3477 136.3 83.6603 135.996 78.1817C135.693 72.703 131.002 68.5075 125.518 68.8109C120.035 69.1141 115.837 73.8013 116.14 79.2799Z" stroke="black" stroke-width="2" stroke-miterlimit="10"/>
<path d="M134.348 82.7052C132.663 81.0223 130.143 78.8665 126.694 76.9989C123.625 75.3367 120.786 74.426 118.618 73.9061C118.939 73.415 121.176 70.1111 125.262 69.6914C129.242 69.2828 132.924 71.8166 134.408 75.2119C135.945 78.7301 134.628 82.0421 134.348 82.7052Z" fill="#1C425D"/>
<path d="M124.967 74.8814C125.261 76.5426 124.151 78.1272 122.488 78.4205C120.826 78.7138 119.24 77.605 118.946 75.9436C118.653 74.2826 119.763 72.6981 121.425 72.4047C123.088 72.1114 124.674 73.2203 124.967 74.8814Z" fill="white"/>
<path d="M60.6527 79.7906C60.9561 85.2694 65.6472 89.465 71.1305 89.1616C76.6136 88.8584 80.8126 84.171 80.509 78.6924C80.2055 73.2137 75.5145 69.0182 70.0313 69.3216C64.5482 69.6248 60.3492 74.312 60.6527 79.7906Z" fill="black"/>
<path d="M60.6527 79.7906C60.9561 85.2694 65.6472 89.465 71.1305 89.1616C76.6136 88.8584 80.8126 84.171 80.509 78.6924C80.2055 73.2137 75.5145 69.0182 70.0313 69.3216C64.5482 69.6248 60.3492 74.312 60.6527 79.7906Z" stroke="black" stroke-width="2" stroke-miterlimit="10"/>
<path d="M78.8611 83.2158C77.1756 81.5329 74.6554 79.3772 71.2066 77.5095C68.137 75.8473 65.2982 74.9366 63.1309 74.4168C63.4519 73.9256 65.6881 70.6217 69.7744 70.202C73.7547 69.7935 77.4365 72.3273 78.9203 75.7225C80.4578 79.2407 79.1409 82.5527 78.8611 83.2158Z" fill="#1C425D"/>
<path d="M69.4799 75.3921C69.7734 77.0532 68.6637 78.6378 67.0011 78.9311C65.3386 79.2244 63.7528 78.1156 63.4592 76.4544C63.1656 74.7932 64.2754 73.2087 65.9379 72.9154C67.6005 72.622 69.1863 73.7309 69.4799 75.3921Z" fill="white"/>
<path d="M99.1387 99.9309C99.2792 101.471 99.4195 103.012 99.5601 104.552" stroke="black" stroke-width="2" stroke-miterlimit="10" stroke-linecap="round" stroke-linejoin="round"/>
<g opacity="0.300003">
<path d="M92.6841 109.229C94.1425 109.633 96.4718 110.087 99.3203 109.827C102.525 109.533 104.954 108.466 106.351 107.721C105.929 111.667 102.624 114.52 99.1144 114.398C96.2474 114.298 93.6214 112.225 92.6841 109.229Z" fill="#455C7F"/>
</g>
<path d="M144.533 1.47535C144.061 1.54051 143.292 1.7053 142.517 2.19788C141.035 3.13977 140.502 4.69469 140.248 5.29946C138.204 10.1536 136.197 15.5308 134.374 21.4096C133.03 25.7409 131.926 29.8933 131.017 33.8237C128.893 33.0566 126.77 32.2896 124.646 31.5225C126.497 27.1656 128.611 22.2153 131.055 16.4722L136.966 5.4691C137.149 5.02427 138.135 2.76298 140.667 1.76185C142.38 1.08438 143.911 1.33641 144.533 1.47535Z" fill="white"/>
<path d="M64.7535 137.396C61.4437 136.866 56.3193 135.845 50.3175 133.753C27.9706 125.963 15.0462 110.855 10.95 105.676C8.41986 102.476 4.97313 97.646 1.69132 91.1824C2.26676 91.3486 3.00534 91.5046 3.87182 91.5496C5.06331 91.6116 6.06059 91.4414 6.76629 91.2615C5.5933 90.2021 4.19898 88.7304 2.90886 86.7772C2.08082 85.5233 1.46316 84.3249 1 83.267C2.09825 83.2882 3.24123 83.3351 4.42517 83.4132C5.83333 83.5061 7.17914 83.6356 8.45795 83.7908C7.67518 83.1877 6.78318 82.4075 5.88291 81.4181C5.03816 80.4898 4.37792 79.588 3.86752 78.7951C9.91084 71.1944 15.6441 61.2885 18.8793 55.6235L18.8797 55.623C22.0216 50.0862 28.014 39.5263 32.5605 27.2183C32.5605 27.2183 39.2047 11.1188 43.578 5.11934C44.5411 3.79814 45.9606 2.85984 45.9606 2.85984C46.4873 2.51159 46.9661 2.20139 47.6697 2.03983C49.0225 1.72946 50.1718 2.2136 50.7711 2.46186C52.0282 2.9828 52.7631 3.78288 53.6675 4.78976C54.9718 6.242 55.7099 7.56553 55.8626 7.84341C58.049 11.8208 61.4539 18.1915 64.4042 26.3585C64.4754 26.5554 64.5524 26.7706 64.5524 26.7706C65.6647 29.8808 66.5005 32.4983 67.0637 34.3372C72.5986 32.8654 76.7988 30.7665 79.5878 29.1263C83.6186 26.7555 90.5523 22.5615 94.8021 14.3562C95.7042 12.6143 96.2796 11.0895 96.6314 10.044C97.382 11.4022 98.3085 13.5 98.6421 16.1923C99.2844 21.3781 97.3091 25.3977 96.4483 26.9318C98.7257 26.1368 101.893 24.7431 105.174 22.2622C107.947 20.1654 109.922 17.9565 111.257 16.2116C111.459 17.4334 111.609 19.1641 111.343 21.2042C111.046 23.4876 110.342 25.2823 109.769 26.4633C111.448 26.0495 114.015 25.1832 116.615 23.2533C118.166 22.1023 119.311 20.8829 120.126 19.8631C120.378 20.6779 120.704 22.1296 120.435 23.9004C120.027 26.5766 118.517 28.2956 117.909 28.9195C118.752 29.1152 119.629 29.3423 120.533 29.6063C121.993 30.0321 123.344 30.5008 124.584 30.9844C126.647 26.2885 128.194 22.4394 129.207 19.8435C129.207 19.8435 132.69 10.9163 137.232 4.34672C137.869 3.42512 139.119 1.74885 141.223 1.18608C141.503 1.11123 142.089 0.978025 142.725 1.00316C145.933 1.13007 148.006 5.18719 148.202 5.58355C149.8 8.34568 152.227 12.6308 155.025 17.9642C155.522 18.9127 156.829 21.7201 159.246 26.6949C159.246 26.6949 159.246 26.6959 159.247 26.6981C161.738 31.8684 163.842 36.0522 164.75 37.8459C164.75 37.8459 164.954 38.2501 165.196 38.7251C167.901 44.0467 174.512 54.4858 179.401 62.0494" stroke="black" stroke-width="2" stroke-miterlimit="10" stroke-linecap="round" stroke-linejoin="round"/>
<path d="M72.6115 43.3392C70.8097 43.0992 68.4528 43.0096 65.7845 43.5187C58.9047 44.8312 54.6173 49.2339 53.0288 51.0581" stroke="black" stroke-width="2" stroke-miterlimit="10" stroke-linecap="round" stroke-linejoin="round"/>
<path d="M116.268 43.6982C118.035 43.3269 120.789 43.0044 123.993 43.6982C130.678 45.1456 134.436 49.9572 135.491 51.4171" stroke="black" stroke-width="2" stroke-miterlimit="10" stroke-linecap="round" stroke-linejoin="round"/>
<path d="M82.313 99.3463C84.4967 101.008 89.3017 104.177 96.1466 104.911C106.879 106.062 114.655 100.373 116.448 98.9873" stroke="black" stroke-width="2" stroke-miterlimit="10" stroke-linecap="round" stroke-linejoin="round"/>
<path d="M85.008 93.9611C84.1221 93.7594 80.871 93.1322 78.0013 95.0382C77.1631 95.595 74.8367 97.1403 74.9472 99.526C75.0277 101.262 76.3521 102.434 76.7437 102.757C77.0443 101.67 77.609 100.164 78.72 98.6284C80.8726 95.6536 83.738 94.4185 85.008 93.9611Z" fill="white"/>
<path d="M114.292 94.4996C117.072 94.6215 118.994 95.5117 120.041 96.1152C121.183 96.7739 122.137 97.3417 122.556 98.4489C123.401 100.682 121.304 103.089 121.119 103.296C120.295 102.071 119.398 100.811 118.424 99.5259C117.034 97.6919 115.644 96.0188 114.292 94.4996Z" fill="white"/>
<path d="M84.8282 98.4489C83.987 98.4761 82.7663 98.6199 81.4147 99.1669C80.6034 99.4952 79.9449 99.8878 79.4385 100.244" stroke="black" stroke-width="2" stroke-miterlimit="10" stroke-linecap="round" stroke-linejoin="round"/>
<path d="M114.472 98.2694C114.891 98.2274 115.376 98.2153 115.909 98.2694C117.471 98.4277 118.645 99.0703 119.322 99.5259" stroke="black" stroke-width="2" stroke-miterlimit="10" stroke-linecap="round" stroke-linejoin="round"/>
<path d="M177.891 132.735C177.951 132.077 178.011 131.419 178.071 130.761C180.663 119.912 181.136 111.396 178.969 109.219C177.289 107.533 175.735 107.604 175.735 107.604C174.638 107.654 173.816 108.295 173.399 108.681C173.33 107.027 172.435 105.551 171.064 104.911C169.216 104.048 166.743 104.815 165.494 106.886C165.443 106.777 164.441 104.758 162.261 104.552C162.154 104.542 160.461 104.41 159.206 105.629C158.284 106.525 158.069 107.695 157.949 109.04C157.785 110.868 157.731 113.746 158.488 117.477C155.275 115.496 152.008 115.381 150.403 116.938C149.474 117.84 149.347 119.063 149.325 119.452C149.168 122.275 152.136 125.28 156.691 126.991C156.751 127.829 156.811 128.666 156.871 129.504C159.271 130.728 163.016 132.279 167.83 132.915C171.945 133.458 175.435 133.148 177.891 132.735Z" fill="white"/>
<path d="M177.891 131.658C175.062 131.902 171.363 131.954 167.111 131.299C163.106 130.683 159.769 129.619 157.23 128.607C157.234 130.472 156.991 135.409 153.637 137.762C151.501 139.26 148.651 139.02 143.037 138.48C139.201 138.11 136.098 137.505 134.054 137.044C108.363 136.744 82.6721 136.445 56.981 136.146C55.7076 136.429 53.8853 136.976 51.9506 138.121C51.9506 138.121 48.4732 140.178 45.8422 144.224C42.7798 148.934 39.7563 169.154 39.7339 197C72.7311 196.821 105.728 196.641 138.725 196.462C138.534 192.218 138.296 187.909 138.007 183.537C137.481 175.594 136.813 167.871 136.03 160.38C144.246 161.209 150.657 161.136 154.894 160.918C158.157 160.751 161.426 160.43 165.135 158.764C165.135 158.764 167.887 157.528 170.165 155.713C175.159 151.734 178.271 142.554 177.891 131.658Z" fill="#C4C3D6"/>
<path d="M90.1499 145.572C90.1499 145.572 84.381 149.323 80.0738 151.008C75.7663 152.694 72.9273 153.785 72.9273 153.785C72.9273 153.785 70.445 147.133 70.6045 139.195C70.7641 131.257 72.0208 127.332 72.0208 127.332C72.0208 127.332 80.7602 129.741 87.3502 133.925" stroke="black" stroke-width="2" stroke-miterlimit="10" stroke-linecap="round" stroke-linejoin="round"/>
<path d="M103.132 145.292C103.132 145.292 108.935 148.989 113.258 150.635C117.58 152.281 120.429 153.346 120.429 153.346C120.429 153.346 122.85 146.671 122.618 138.735C122.385 130.799 121.092 126.886 121.092 126.886C121.092 126.886 112.375 129.375 105.824 133.619" stroke="black" stroke-width="2" stroke-miterlimit="10" stroke-linecap="round" stroke-linejoin="round"/>
<path d="M74.963 148.582C74.963 148.582 73.8476 140.65 74.0158 134.574C74.1838 128.498 74.9543 125.457 74.9543 125.457C74.9543 125.457 84.7751 128.449 92.1578 134.392" fill="#21A038"/>
<path d="M74.963 148.582C74.963 148.582 73.8476 140.65 74.0158 134.574C74.1838 128.498 74.9543 125.457 74.9543 125.457C74.9543 125.457 84.7751 128.449 92.1578 134.392" stroke="black" stroke-width="2" stroke-miterlimit="10" stroke-linecap="round" stroke-linejoin="round"/>
<path d="M90.1499 145.572C90.1499 145.572 84.381 149.323 80.0738 151.008C75.7663 152.694 72.9273 153.785 72.9273 153.785C72.9273 153.785 70.445 147.133 70.6045 139.195C70.7641 131.257 72.0208 127.332 72.0208 127.332C72.0208 127.332 80.7602 129.741 87.3503 133.925" fill="#21A038"/>
<g opacity="0.899994">
<path d="M89.7054 134.208C89.7054 134.208 88.4271 135.718 86.819 135.642C82.467 135.436 76.2869 134.428 76.567 134.856C77.1103 135.687 83.1569 135.884 84.2316 138.153C85.6676 141.183 74.0267 140.365 74.3404 141.138C74.5387 141.627 85.4673 140.254 85.2407 144.321C85.0771 147.263 73.7085 152.997 73.7085 152.997C73.7085 152.997 83.504 150.502 88.1932 146.561C92.8825 142.62 88.3414 136.174 88.3414 136.174" fill="#18771E"/>
</g>
<path d="M90.1499 145.572C90.1499 145.572 84.381 149.323 80.0738 151.008C75.7663 152.694 72.9273 153.785 72.9273 153.785C72.9273 153.785 70.445 147.133 70.6045 139.195C70.7641 131.257 72.0208 127.332 72.0208 127.332C72.0208 127.332 80.7602 129.741 87.3502 133.925" stroke="black" stroke-width="2" stroke-miterlimit="10" stroke-linecap="round" stroke-linejoin="round"/>
<path d="M118.346 148.162C118.346 148.162 119.388 140.22 119.164 134.146C118.94 128.071 118.141 125.037 118.141 125.037C118.141 125.037 108.349 128.12 101.021 134.131" fill="#21A038"/>
<path d="M118.346 148.162C118.346 148.162 119.388 140.22 119.164 134.146C118.94 128.071 118.141 125.037 118.141 125.037C118.141 125.037 108.349 128.12 101.021 134.131" stroke="black" stroke-width="2" stroke-miterlimit="10" stroke-linecap="round" stroke-linejoin="round"/>
<path d="M103.132 145.292C103.132 145.292 108.935 148.989 113.258 150.635C117.58 152.281 120.429 153.346 120.429 153.346C120.429 153.346 122.85 146.671 122.618 138.735C122.385 130.799 121.092 126.886 121.092 126.886C121.092 126.886 112.375 129.375 105.824 133.619" fill="#21A038"/>
<g opacity="0.899994">
<path d="M103.471 133.924C103.471 133.924 104.763 135.422 106.371 135.331C110.721 135.085 116.891 134.02 116.615 134.451C116.08 135.287 110.035 135.54 108.981 137.818C107.573 140.862 119.206 139.936 118.9 140.712C118.706 141.203 107.765 139.93 108.029 143.996C108.22 146.936 119.641 152.565 119.641 152.565C119.641 152.565 109.823 150.161 105.098 146.263C100.372 142.365 104.853 135.877 104.853 135.877" fill="#18771E"/>
</g>
<path d="M103.132 145.292C103.132 145.292 108.935 148.989 113.258 150.635C117.58 152.281 120.429 153.346 120.429 153.346C120.429 153.346 122.85 146.671 122.618 138.735C122.385 130.799 121.092 126.886 121.092 126.886C121.092 126.886 112.375 129.375 105.824 133.619" stroke="black" stroke-width="2" stroke-miterlimit="10" stroke-linecap="round" stroke-linejoin="round"/>
<path d="M107.096 141.183C107.07 135.663 102.571 131.209 97.0466 131.234C91.5221 131.26 87.0644 135.755 87.09 141.275C87.1153 146.795 91.6145 151.249 97.1389 151.224C102.663 151.198 107.121 146.703 107.096 141.183Z" fill="#21A038"/>
<path d="M107.096 141.183C107.07 135.663 102.571 131.209 97.0466 131.234C91.5221 131.26 87.0644 135.755 87.09 141.275C87.1153 146.795 91.6145 151.249 97.1389 151.224C102.663 151.198 107.121 146.703 107.096 141.183Z" stroke="black" stroke-width="2" stroke-miterlimit="10"/>
<path d="M104.443 141.253C104.441 140.801 104.398 140.36 104.319 139.932L102.735 141.109C102.736 141.159 102.738 141.21 102.738 141.261C102.752 144.389 100.217 146.946 97.0858 146.96C93.9549 146.975 91.3959 144.441 91.3815 141.313C91.367 138.184 93.9025 135.628 97.0334 135.613C98.2198 135.608 99.3242 135.969 100.239 136.589L101.67 135.525C100.398 134.507 98.7822 133.901 97.0257 133.909C92.9476 133.928 89.657 137.246 89.6759 141.321C89.6945 145.395 93.0157 148.683 97.0936 148.664C101.171 148.646 104.462 145.327 104.443 141.253Z" fill="white"/>
<path d="M102.882 136.749C103.233 137.198 103.533 137.688 103.773 138.212L97.0686 143.197L94.2496 141.449L94.2397 139.331L97.0588 141.079L102.882 136.749Z" fill="white"/>
<path d="M57.9691 136.056C55.8033 136.392 52.2603 137.282 49.1659 140.005C49.1659 140.005 46.6554 142.215 45.0338 145.75C42.3393 151.623 40.091 170.873 39.644 196.91" stroke="black" stroke-width="2" stroke-miterlimit="10" stroke-linecap="round" stroke-linejoin="round"/>
<path d="M59.0471 159.931C58.7826 163.304 58.5424 166.715 58.3284 170.163C57.7762 179.059 57.4262 187.74 57.2505 196.192" stroke="black" stroke-width="2" stroke-miterlimit="10" stroke-linecap="round" stroke-linejoin="round"/>
<path d="M135.671 156.431C136.357 162.462 136.963 168.687 137.468 175.1C138.046 182.444 138.457 189.571 138.726 196.461" stroke="black" stroke-width="2" stroke-miterlimit="10" stroke-linecap="round" stroke-linejoin="round"/>
<path d="M134.054 137.044C136.567 137.639 140.343 138.374 145.013 138.659C151.498 139.055 152.977 138.23 153.637 137.762C157.557 134.978 156.835 128.189 156.691 126.991C154.854 126.461 153.552 125.638 152.739 125.016C151.392 123.988 149.452 122.506 149.325 120.17C149.312 119.931 149.24 118.135 150.403 116.938C152.003 115.292 155.45 115.286 158.488 117.477C158.441 117.181 158.376 116.746 158.308 116.22C157.692 111.437 157.189 107.523 159.206 105.629C159.359 105.486 160.328 104.602 161.721 104.552C161.721 104.552 162.851 104.512 164.057 105.27C165.94 106.454 167.017 110.232 166.752 114.964" stroke="black" stroke-width="2" stroke-miterlimit="10" stroke-linecap="round" stroke-linejoin="round"/>
<path d="M165.495 106.886C165.753 106.503 167.017 104.709 169.088 104.552C169.088 104.552 170.093 104.476 171.064 104.911C173.273 105.901 174.347 110.477 173.939 116.22" stroke="black" stroke-width="2" stroke-miterlimit="10" stroke-linecap="round" stroke-linejoin="round"/>
<path d="M173.758 108.142C175.575 107.432 176.749 107.581 177.531 107.963C183.117 110.69 178.327 129.949 177.891 131.658C178.006 133.771 178.661 149.841 168.369 156.969C161.882 161.461 152.743 161.266 145.013 161.098C141.524 161.022 138.619 160.685 136.569 160.38" stroke="black" stroke-width="2" stroke-miterlimit="10" stroke-linecap="round" stroke-linejoin="round"/>
<path d="M163.877 115.682C165.223 115.394 167.079 115.15 169.267 115.323C172.393 115.57 174.809 116.556 176.274 117.297" stroke="black" stroke-width="2" stroke-miterlimit="10" stroke-linecap="round" stroke-linejoin="round"/>
</svg>
