<svg width="376" height="144" viewBox="0 0 376 144" fill="none" xmlns="http://www.w3.org/2000/svg">
<rect width="376" height="144" fill="url(#paint0_linear_245_954)"/>
<path d="M16 129C16 124.582 19.5817 121 24 121H40C44.4183 121 48 124.582 48 129V144H16V129Z" fill="url(#paint1_linear_245_954)"/>
<path d="M326 26C326 21.5817 329.582 18 334 18H350C354.418 18 358 21.5817 358 26V144H326V26Z" fill="url(#paint2_linear_245_954)"/>
<path d="M282 40C282 35.5817 285.582 32 290 32H306C310.418 32 314 35.5817 314 40V144H282V40Z" fill="url(#paint3_linear_245_954)"/>
<path d="M238 56C238 51.5817 241.582 48 246 48H262C266.418 48 270 51.5817 270 56V144H238V56Z" fill="url(#paint4_linear_245_954)"/>
<path d="M194 71C194 66.5817 197.582 63 202 63H218C222.418 63 226 66.5817 226 71V144H194V71Z" fill="url(#paint5_linear_245_954)"/>
<path d="M150 87C150 82.5817 153.582 79 158 79H174C178.418 79 182 82.5817 182 87V144H150V87Z" fill="url(#paint6_linear_245_954)"/>
<path d="M105 102C105 97.5817 108.582 94 113 94H129C133.418 94 137 97.5817 137 102V144H105V102Z" fill="url(#paint7_linear_245_954)"/>
<path d="M60 114C60 109.582 63.5817 106 68 106H84C88.4183 106 92 109.582 92 114V144H60V114Z" fill="url(#paint8_linear_245_954)"/>
<defs>
<linearGradient id="paint0_linear_245_954" x1="188" y1="0" x2="188" y2="144" gradientUnits="userSpaceOnUse">
<stop stop-color="#4A25DD"/>
<stop offset="1" stop-color="#8D7FF5"/>
</linearGradient>
<linearGradient id="paint1_linear_245_954" x1="32" y1="121" x2="32" y2="144" gradientUnits="userSpaceOnUse">
<stop stop-color="white" stop-opacity="0.46"/>
<stop offset="0.708333" stop-color="white" stop-opacity="0.35"/>
<stop offset="1" stop-color="white" stop-opacity="0.22"/>
</linearGradient>
<linearGradient id="paint2_linear_245_954" x1="342" y1="18" x2="342" y2="144" gradientUnits="userSpaceOnUse">
<stop stop-color="white" stop-opacity="0.46"/>
<stop offset="0.708333" stop-color="white" stop-opacity="0.35"/>
<stop offset="1" stop-color="white" stop-opacity="0.22"/>
</linearGradient>
<linearGradient id="paint3_linear_245_954" x1="298" y1="32" x2="298" y2="144" gradientUnits="userSpaceOnUse">
<stop stop-color="white" stop-opacity="0.46"/>
<stop offset="0.708333" stop-color="white" stop-opacity="0.35"/>
<stop offset="1" stop-color="white" stop-opacity="0.22"/>
</linearGradient>
<linearGradient id="paint4_linear_245_954" x1="254" y1="48" x2="254" y2="144" gradientUnits="userSpaceOnUse">
<stop stop-color="white" stop-opacity="0.46"/>
<stop offset="0.708333" stop-color="white" stop-opacity="0.35"/>
<stop offset="1" stop-color="white" stop-opacity="0.22"/>
</linearGradient>
<linearGradient id="paint5_linear_245_954" x1="210" y1="63" x2="210" y2="144" gradientUnits="userSpaceOnUse">
<stop stop-color="white" stop-opacity="0.46"/>
<stop offset="0.708333" stop-color="white" stop-opacity="0.35"/>
<stop offset="1" stop-color="white" stop-opacity="0.22"/>
</linearGradient>
<linearGradient id="paint6_linear_245_954" x1="166" y1="79" x2="166" y2="144" gradientUnits="userSpaceOnUse">
<stop stop-color="white" stop-opacity="0.46"/>
<stop offset="0.708333" stop-color="white" stop-opacity="0.35"/>
<stop offset="1" stop-color="white" stop-opacity="0.22"/>
</linearGradient>
<linearGradient id="paint7_linear_245_954" x1="121" y1="94" x2="121" y2="144" gradientUnits="userSpaceOnUse">
<stop stop-color="white" stop-opacity="0.46"/>
<stop offset="0.708333" stop-color="white" stop-opacity="0.35"/>
<stop offset="1" stop-color="white" stop-opacity="0.22"/>
</linearGradient>
<linearGradient id="paint8_linear_245_954" x1="76" y1="106" x2="76" y2="144" gradientUnits="userSpaceOnUse">
<stop stop-color="white" stop-opacity="0.46"/>
<stop offset="0.708333" stop-color="white" stop-opacity="0.35"/>
<stop offset="1" stop-color="white" stop-opacity="0.22"/>
</linearGradient>
</defs>
</svg>
